<svg width="77" height="48" viewBox="0 0 77 48" fill="none" xmlns="http://www.w3.org/2000/svg">
<g clip-path="url(#clip0)">
<path fill-rule="evenodd" clip-rule="evenodd" d="M0.51561 47.3691H66.7425V8.18056H0.51561V47.3691Z" fill="#992032" fill-opacity="0.45"/>
<path fill-rule="evenodd" clip-rule="evenodd" d="M0.51561 47.3664H66.7425V8.17782H0.51561V47.3664Z" stroke="#211F1F" stroke-width="1.03929"/>
<path fill-rule="evenodd" clip-rule="evenodd" d="M24.8944 12.4087C24.0419 12.4087 23.3475 11.7161 23.3475 10.8658V4.4681C23.3475 3.61096 24.0419 2.92525 24.8944 2.92525C25.7469 2.92525 26.4413 3.61096 26.4413 4.4681V10.8658C26.4413 11.7161 25.7469 12.4087 24.8944 12.4087Z" fill="white"/>
<path fill-rule="evenodd" clip-rule="evenodd" d="M24.8944 12.4087C24.0419 12.4087 23.3475 11.7161 23.3475 10.8658V4.4681C23.3475 3.61096 24.0419 2.92525 24.8944 2.92525C25.7469 2.92525 26.4413 3.61096 26.4413 4.4681V10.8658C26.4413 11.7161 25.7469 12.4087 24.8944 12.4087Z" stroke="black" stroke-width="1.03929"/>
<path fill-rule="evenodd" clip-rule="evenodd" d="M42.3706 12.4087C41.5112 12.4087 40.8237 11.7161 40.8237 10.8658V4.4681C40.8237 3.61096 41.5112 2.92525 42.3706 2.92525C43.2231 2.92525 43.9175 3.61096 43.9175 4.4681V10.8658C43.9175 11.7161 43.2231 12.4087 42.3706 12.4087Z" fill="white"/>
<path fill-rule="evenodd" clip-rule="evenodd" d="M42.3706 12.4087C41.5112 12.4087 40.8237 11.7161 40.8237 10.8658V4.4681C40.8237 3.61096 41.5112 2.92525 42.3706 2.92525C43.2231 2.92525 43.9175 3.61096 43.9175 4.4681V10.8658C43.9175 11.7161 43.2231 12.4087 42.3706 12.4087Z" stroke="black" stroke-width="1.03929"/>
<path fill-rule="evenodd" clip-rule="evenodd" d="M5.17 39.8441H28.0844V16.9824H5.17V39.8441Z" fill="white"/>
<path fill-rule="evenodd" clip-rule="evenodd" d="M5.17 39.8441H28.0844V16.9824H5.17V39.8441Z" stroke="black" stroke-width="1.03929"/>
<path fill-rule="evenodd" clip-rule="evenodd" d="M23.6156 31.3001H23.0037V28.5641C23.0037 24.8887 20.0131 21.9058 16.335 21.9058H16.0256C12.3406 21.9058 9.35687 24.8887 9.35687 28.5641V39.8373H23.0037V33.2475H23.6156C24.1519 33.2475 24.5919 32.8087 24.5919 32.2738C24.5919 31.739 24.1519 31.3001 23.6156 31.3001Z" fill="white"/>
<path fill-rule="evenodd" clip-rule="evenodd" d="M23.6156 31.3001H23.0037V28.5641C23.0037 24.8887 20.0131 21.9058 16.335 21.9058H16.0256C12.3406 21.9058 9.35687 24.8887 9.35687 28.5641V39.8373H23.0037V33.2475H23.6156C24.1519 33.2475 24.5919 32.8087 24.5919 32.2738C24.5919 31.739 24.1519 31.3001 23.6156 31.3001V31.3001Z" stroke="black" stroke-width="1.03929"/>
<path fill-rule="evenodd" clip-rule="evenodd" d="M16.1769 21.3367C12.4094 21.3367 9.35687 24.3812 9.35687 28.139V29.5035C9.56312 28.6395 10.3469 27.9881 11.2819 27.9881C12.3406 27.9881 13.2 28.8178 13.255 29.8601V24.251C13.255 24.251 16.5481 29.0853 23.0037 29.0853V28.139C23.0037 24.3812 19.9512 21.3367 16.1769 21.3367Z" fill="white"/>
<path fill-rule="evenodd" clip-rule="evenodd" d="M16.1769 21.3367C12.4094 21.3367 9.35687 24.3812 9.35687 28.139V29.5035C9.56312 28.6395 10.3469 27.9881 11.2819 27.9881C12.3406 27.9881 13.2 28.8178 13.255 29.8601V24.251C13.255 24.251 16.5481 29.0853 23.0037 29.0853V28.139C23.0037 24.3812 19.9512 21.3367 16.1769 21.3367V21.3367Z" stroke="black" stroke-width="1.03929" stroke-linecap="round" stroke-linejoin="round"/>
<path fill-rule="evenodd" clip-rule="evenodd" d="M33.6325 20.8704H60.9744V16.9824H33.6325V20.8704Z" fill="#992032" fill-opacity="0.45"/>
<path fill-rule="evenodd" clip-rule="evenodd" d="M33.6325 20.8704H60.9744V16.9824H33.6325V20.8704Z" stroke="#211F1F" stroke-width="1.03929" stroke-linejoin="round"/>
<path fill-rule="evenodd" clip-rule="evenodd" d="M33.6325 28.1664H47.3V24.2784H33.6325V28.1664Z" fill="#992032" fill-opacity="0.45"/>
<path fill-rule="evenodd" clip-rule="evenodd" d="M33.6325 28.1664H47.3V24.2784H33.6325V28.1664Z" stroke="#211F1F" stroke-width="1.03929" stroke-linejoin="round"/>
<path d="M33.6325 39.4944H60.9744M33.6325 32.8704H60.9744H33.6325ZM33.6325 36.1824H60.9744H33.6325Z" stroke="black" stroke-width="1.03929"/>
<path fill-rule="evenodd" clip-rule="evenodd" d="M76.3262 12.7995C76.3262 19.5881 70.8125 25.0875 64.0062 25.0875C57.2069 25.0875 51.6931 19.5881 51.6931 12.7995C51.6931 6.01782 57.2069 0.511536 64.0062 0.511536C70.8125 0.511536 76.3262 6.01782 76.3262 12.7995Z" fill="#992032"/>
<path fill-rule="evenodd" clip-rule="evenodd" d="M76.3262 12.7995C76.3262 19.5881 70.8125 25.0875 64.0062 25.0875C57.2069 25.0875 51.6931 19.5881 51.6931 12.7995C51.6931 6.01782 57.2069 0.511536 64.0062 0.511536C70.8125 0.511536 76.3262 6.01782 76.3262 12.7995V12.7995Z" stroke="#211F1F" stroke-width="1.03929" stroke-linecap="round" stroke-linejoin="round"/>
<path fill-rule="evenodd" clip-rule="evenodd" d="M69.6231 10.7972H66.0137V7.19725C66.0137 6.09325 65.1131 5.20182 64.0062 5.20182C62.8994 5.20182 62.0056 6.09325 62.0056 7.19725V10.7972H58.3962C57.2894 10.7972 56.3887 11.6955 56.3887 12.7995C56.3887 13.9035 57.2894 14.8018 58.3962 14.8018H62.0056V18.4018C62.0056 19.5058 62.8994 20.3972 64.0062 20.3972C65.1131 20.3972 66.0137 19.5058 66.0137 18.4018V14.8018H69.6231C70.73 14.8018 71.6306 13.9035 71.6306 12.7995C71.6306 11.6955 70.73 10.7972 69.6231 10.7972Z" fill="white"/>
<path fill-rule="evenodd" clip-rule="evenodd" d="M69.6231 10.7972H66.0137V7.19725C66.0137 6.09325 65.1131 5.20182 64.0062 5.20182C62.8994 5.20182 62.0056 6.09325 62.0056 7.19725V10.7972H58.3962C57.2894 10.7972 56.3887 11.6955 56.3887 12.7995C56.3887 13.9035 57.2894 14.8018 58.3962 14.8018H62.0056V18.4018C62.0056 19.5058 62.8994 20.3972 64.0062 20.3972C65.1131 20.3972 66.0137 19.5058 66.0137 18.4018V14.8018H69.6231C70.73 14.8018 71.6306 13.9035 71.6306 12.7995C71.6306 11.6955 70.73 10.7972 69.6231 10.7972V10.7972Z" stroke="black" stroke-width="1.03929"/>
</g>
<defs>
<clipPath id="clip0">
<rect width="77" height="48" fill="white"/>
</clipPath>
</defs>
</svg>
