<svg width="96" height="51" viewBox="0 0 96 51" fill="none" xmlns="http://www.w3.org/2000/svg">
<g clip-path="url(#clip0)">
<path fill-rule="evenodd" clip-rule="evenodd" d="M0.537315 18.4462H75.2597V9.23028H0.537315V18.4462Z" fill="#992032" fill-opacity="0.45"/>
<path fill-rule="evenodd" clip-rule="evenodd" d="M0.537315 18.4534H75.2597V9.23028H0.537315V18.4534Z" stroke="#211F1F" stroke-width="1.07746" stroke-linejoin="round"/>
<path fill-rule="evenodd" clip-rule="evenodd" d="M2.75821 46.3885H72.9313V18.4462H2.75821V46.3885Z" fill="#992032" fill-opacity="0.45"/>
<path fill-rule="evenodd" clip-rule="evenodd" d="M2.75821 46.3885H72.9313V18.4462H2.75821V46.3885Z" stroke="#211F1F" stroke-width="1.07746" stroke-linejoin="round"/>
<path fill-rule="evenodd" clip-rule="evenodd" d="M14.9803 44.4124C14.9803 39.9158 17.7743 35.9004 21.9725 34.3489L57.3349 21.2613C58.0343 21.0028 58.7855 20.9176 59.5248 21.013C60.264 21.1083 60.9694 21.3813 61.5807 21.8088C62.1921 22.2362 62.6914 22.8055 63.0361 23.4681C63.3808 24.1306 63.5608 24.8669 63.5606 25.6142V26.5983L66.4907 28.0996C68.64 29.2058 71.1546 29.3853 73.4185 28.5377C76.2269 27.489 79.7087 25.607 80.726 22.5758C80.9068 22.0468 81.2475 21.5876 81.7008 21.2619C82.154 20.9362 82.6973 20.7602 83.2549 20.7584H83.5272C85.046 20.7584 86.2424 21.958 86.2424 23.4377V44.4124H14.9803Z" fill="#992032" fill-opacity="0.45"/>
<path fill-rule="evenodd" clip-rule="evenodd" d="M14.9803 44.4124C14.9803 39.9158 17.7743 35.9004 21.9725 34.3489L57.3349 21.2613C58.0343 21.0028 58.7855 20.9176 59.5248 21.013C60.264 21.1083 60.9694 21.3813 61.5807 21.8088C62.1921 22.2362 62.6914 22.8055 63.0361 23.4681C63.3808 24.1306 63.5608 24.8669 63.5606 25.6142V26.5983L66.4907 28.0996C68.64 29.2058 71.1546 29.3853 73.4185 28.5377C76.2269 27.489 79.7087 25.607 80.726 22.5758C80.9068 22.0468 81.2475 21.5876 81.7008 21.2619C82.154 20.9362 82.6973 20.7602 83.2549 20.7584H83.5272C85.046 20.7584 86.2424 21.958 86.2424 23.4377V44.4124H14.9803V44.4124Z" stroke="#211F1F" stroke-width="1.07746"/>
<path fill-rule="evenodd" clip-rule="evenodd" d="M73.7194 44.3405V35.3258C64.4418 35.3258 56.6543 30.3407 51.3242 23.488L28.9361 31.7701V32.0934L34.1516 44.3405H73.7194Z" fill="white"/>
<path d="M51.3242 23.488C56.6543 30.3407 64.4418 35.3258 73.7194 35.3258M73.7194 44.3405V35.3258C64.4418 35.3258 56.6543 30.3407 51.3242 23.488L28.9361 31.7701V32.0934L34.1516 44.3405H73.7194Z" stroke="#211F1F" stroke-width="1.07746" stroke-linecap="round" stroke-linejoin="round"/>
<path fill-rule="evenodd" clip-rule="evenodd" d="M67.7803 44.4124H86.2424V30.6927C77.5379 30.6927 70.1875 36.4751 67.7803 44.4124Z" fill="white"/>
<mask id="mask0" mask-type="alpha" maskUnits="userSpaceOnUse" x="67" y="40" width="3" height="5">
<path d="M69.2275 44.4124H67.7803C68.1528 43.1913 68.64 42.0204 69.2275 40.9142V44.4124Z" fill="white"/>
</mask>
<g mask="url(#mask0)">
<path d="M69.2275 59.1306L20.5827 -39.2707" stroke="#D7E5F0" stroke-width="1.07746"/>
</g>
<mask id="mask1" mask-type="alpha" maskUnits="userSpaceOnUse" x="67" y="36" width="6" height="9">
<path d="M72.0716 44.4124H67.7803C68.64 41.5822 70.123 39.0322 72.0716 36.9204V44.4124Z" fill="white"/>
</mask>
<g mask="url(#mask1)">
<path d="M72.0716 59.1305L23.4269 -39.2707" stroke="#D7E5F0" stroke-width="1.07746"/>
</g>
<mask id="mask2" mask-type="alpha" maskUnits="userSpaceOnUse" x="67" y="34" width="8" height="11">
<path d="M74.9087 44.4124H67.7803C69.0125 40.3396 71.5558 36.8342 74.9087 34.3848V44.4124Z" fill="white"/>
</mask>
<g mask="url(#mask2)">
<path d="M74.9087 59.1305L26.2639 -39.2707" stroke="#D7E5F0" stroke-width="1.07746"/>
</g>
<mask id="mask3" mask-type="alpha" maskUnits="userSpaceOnUse" x="67" y="32" width="11" height="13">
<path d="M77.7457 44.4124H67.7803C69.3421 39.2549 72.9958 35.0097 77.7457 32.668V44.4124Z" fill="white"/>
</mask>
<g mask="url(#mask3)">
<path d="M77.7457 59.1305L29.1009 -39.2707" stroke="#D7E5F0" stroke-width="1.07746"/>
</g>
<mask id="mask4" mask-type="alpha" maskUnits="userSpaceOnUse" x="67" y="31" width="14" height="14">
<path d="M80.5827 44.4124H67.7803C69.643 38.2708 74.4645 33.4151 80.5827 31.5403V44.4124Z" fill="white"/>
</mask>
<g mask="url(#mask4)">
<path d="M80.5827 59.1305L31.9451 -39.2707" stroke="#D7E5F0" stroke-width="1.07746"/>
</g>
<mask id="mask5" mask-type="alpha" maskUnits="userSpaceOnUse" x="67" y="30" width="17" height="15">
<path d="M83.4269 44.4124H67.7803C69.9224 37.3442 75.9833 31.9928 83.4269 30.901V44.4124Z" fill="white"/>
</mask>
<g mask="url(#mask5)">
<path d="M83.4269 59.1305L34.7821 -39.2707" stroke="#D7E5F0" stroke-width="1.07746"/>
</g>
<mask id="mask6" mask-type="alpha" maskUnits="userSpaceOnUse" x="67" y="30" width="20" height="15">
<path d="M67.7803 44.4124H86.2424V30.6927C77.5379 30.6927 70.1875 36.4751 67.7803 44.4124Z" fill="white"/>
</mask>
<g mask="url(#mask6)">
<path d="M86.2639 59.1305L37.6191 -39.2707" stroke="#D7E5F0" stroke-width="1.07746"/>
</g>
<mask id="mask7" mask-type="alpha" maskUnits="userSpaceOnUse" x="67" y="30" width="20" height="15">
<path d="M67.7803 44.4124H86.2424V30.6927C77.5379 30.6927 70.1875 36.4751 67.7803 44.4124Z" fill="white"/>
</mask>
<g mask="url(#mask7)">
<path d="M89.1009 59.1305L40.4633 -39.2707" stroke="#D7E5F0" stroke-width="1.07746"/>
</g>
<mask id="mask8" mask-type="alpha" maskUnits="userSpaceOnUse" x="67" y="30" width="20" height="15">
<path d="M67.7803 44.4124H86.2424V30.6927C77.5379 30.6927 70.1875 36.4751 67.7803 44.4124Z" fill="white"/>
</mask>
<g mask="url(#mask8)">
<path d="M91.9451 59.1305L43.3003 -39.2707" stroke="#D7E5F0" stroke-width="1.07746"/>
</g>
<mask id="mask9" mask-type="alpha" maskUnits="userSpaceOnUse" x="67" y="30" width="20" height="15">
<path d="M67.7803 44.4124H86.2424V30.6927C77.5379 30.6927 70.1875 36.4751 67.7803 44.4124Z" fill="white"/>
</mask>
<g mask="url(#mask9)">
<path d="M94.7821 59.1305L46.1373 -39.2707" stroke="#D7E5F0" stroke-width="1.07746"/>
</g>
<mask id="mask10" mask-type="alpha" maskUnits="userSpaceOnUse" x="67" y="30" width="20" height="15">
<path d="M67.7803 44.4124H86.2424V30.6927C77.5379 30.6927 70.1875 36.4751 67.7803 44.4124Z" fill="white"/>
</mask>
<g mask="url(#mask10)">
<path d="M97.6191 59.1305L48.9815 -39.2707" stroke="#D7E5F0" stroke-width="1.07746"/>
</g>
<mask id="mask11" mask-type="alpha" maskUnits="userSpaceOnUse" x="67" y="30" width="20" height="15">
<path d="M67.7803 44.4124H86.2424V30.6927C77.5379 30.6927 70.1875 36.4751 67.7803 44.4124Z" fill="white"/>
</mask>
<g mask="url(#mask11)">
<path d="M100.463 59.1305L51.8185 -39.2707" stroke="#D7E5F0" stroke-width="1.07746"/>
</g>
<mask id="mask12" mask-type="alpha" maskUnits="userSpaceOnUse" x="67" y="30" width="20" height="15">
<path d="M67.7803 44.4124H86.2424V30.6927C77.5379 30.6927 70.1875 36.4751 67.7803 44.4124Z" fill="white"/>
</mask>
<g mask="url(#mask12)">
<path d="M103.3 59.1305L54.6555 -39.2707" stroke="#D7E5F0" stroke-width="1.07746"/>
</g>
<mask id="mask13" mask-type="alpha" maskUnits="userSpaceOnUse" x="67" y="30" width="20" height="15">
<path d="M67.7803 44.4124H86.2424V30.6927C77.5379 30.6927 70.1875 36.4751 67.7803 44.4124Z" fill="white"/>
</mask>
<g mask="url(#mask13)">
<path d="M106.137 59.1305L57.4997 -39.2707" stroke="#D7E5F0" stroke-width="1.07746"/>
</g>
<mask id="mask14" mask-type="alpha" maskUnits="userSpaceOnUse" x="67" y="30" width="20" height="15">
<path d="M67.7803 44.4124H86.2424V30.6927C77.5379 30.6927 70.1875 36.4751 67.7803 44.4124Z" fill="white"/>
</mask>
<g mask="url(#mask14)">
<path d="M108.981 59.1305L60.3367 -39.2707" stroke="#D7E5F0" stroke-width="1.07746"/>
</g>
<mask id="mask15" mask-type="alpha" maskUnits="userSpaceOnUse" x="67" y="30" width="20" height="15">
<path d="M67.7803 44.4124H86.2424V30.6927C77.5379 30.6927 70.1875 36.4751 67.7803 44.4124Z" fill="white"/>
</mask>
<g mask="url(#mask15)">
<path d="M111.819 59.1305L63.1737 -39.2707" stroke="#D7E5F0" stroke-width="1.07746"/>
</g>
<mask id="mask16" mask-type="alpha" maskUnits="userSpaceOnUse" x="67" y="30" width="20" height="15">
<path d="M67.7803 44.4124H86.2424V30.6927C77.5379 30.6927 70.1875 36.4751 67.7803 44.4124Z" fill="white"/>
</mask>
<g mask="url(#mask16)">
<path d="M114.656 59.1305L66.0179 -39.2707" stroke="#D7E5F0" stroke-width="1.07746"/>
</g>
<path d="M36.874 27.0436L39.7827 32.3376M67.7803 44.4124H86.2424V30.6927C77.5379 30.6927 70.1875 36.4751 67.7803 44.4124ZM28.929 32.0862L34.1516 44.3406L28.929 32.0862ZM45.1773 23.9837L48.086 29.2848L45.1773 23.9837ZM41.0364 25.4849L43.9522 30.7789L41.0364 25.4849Z" stroke="#211F1F" stroke-width="1.07746" stroke-linecap="round" stroke-linejoin="round"/>
<path fill-rule="evenodd" clip-rule="evenodd" d="M60.6519 24.8528C60.6512 25.1217 60.5711 25.3844 60.4217 25.6077C60.2722 25.831 60.0601 26.0049 59.8122 26.1075C59.5643 26.2101 59.2916 26.2367 59.0286 26.1841C58.7656 26.1314 58.524 26.0019 58.3344 25.8117C58.1447 25.6216 58.0155 25.3794 57.963 25.1156C57.9105 24.8519 57.9371 24.5785 58.0394 24.33C58.1417 24.0814 58.3151 23.8688 58.5378 23.7189C58.7606 23.5691 59.0225 23.4887 59.2907 23.488C60.043 23.488 60.6519 24.0986 60.6519 24.8528Z" fill="white"/>
<path fill-rule="evenodd" clip-rule="evenodd" d="M60.6519 24.8528C60.6512 25.1217 60.5711 25.3844 60.4217 25.6077C60.2722 25.831 60.0601 26.0049 59.8122 26.1075C59.5643 26.2101 59.2916 26.2367 59.0286 26.1841C58.7656 26.1314 58.524 26.0019 58.3344 25.8117C58.1447 25.6216 58.0155 25.3794 57.963 25.1156C57.9105 24.8519 57.9371 24.5785 58.0394 24.33C58.1417 24.0814 58.3151 23.8688 58.5378 23.7189C58.7606 23.5691 59.0225 23.4887 59.2907 23.488C60.043 23.488 60.6519 24.0986 60.6519 24.8528Z" stroke="#211F1F" stroke-width="1.07746" stroke-linecap="round" stroke-linejoin="round"/>
<path fill-rule="evenodd" clip-rule="evenodd" d="M14.9803 44.3405V45.8921C14.9803 47.7956 16.1767 49.419 17.8531 50.0583L19.4293 48.478L21.1343 50.1876L22.8466 48.478L24.5516 50.1876L26.2567 48.478L27.969 50.1876L29.674 48.478L31.3863 50.1876L33.0913 48.478L34.8036 50.1876L36.5087 48.478L38.2137 50.1876L39.926 48.478L41.631 50.1876L43.3433 48.478L45.0484 50.1876L46.7606 48.478L48.4657 50.1876L50.1707 48.478L51.883 50.1876L53.5881 48.478L55.3003 50.1876L57.0054 48.478L58.7104 50.1876L60.4227 48.478L62.1278 50.1876L63.84 48.478L65.5451 50.1876L67.2573 48.478L68.9624 50.1876L70.6675 48.478L72.3797 50.1876L74.0848 48.478L75.797 50.1876L77.5021 48.478L79.2143 50.1876L80.9194 48.478L82.7176 50.2738C84.7236 49.9075 86.2424 48.1476 86.2424 46.0286V44.3405H14.9803Z" fill="#992032" fill-opacity="0.45"/>
<path fill-rule="evenodd" clip-rule="evenodd" d="M14.9803 44.3405V45.8921C14.9803 47.7956 16.1767 49.419 17.8531 50.0583L19.4293 48.478L21.1343 50.1876L22.8466 48.478L24.5516 50.1876L26.2567 48.478L27.969 50.1876L29.674 48.478L31.3863 50.1876L33.0913 48.478L34.8036 50.1876L36.5087 48.478L38.2137 50.1876L39.926 48.478L41.631 50.1876L43.3433 48.478L45.0484 50.1876L46.7606 48.478L48.4657 50.1876L50.1707 48.478L51.883 50.1876L53.5881 48.478L55.3003 50.1876L57.0054 48.478L58.7104 50.1876L60.4227 48.478L62.1278 50.1876L63.84 48.478L65.5451 50.1876L67.2573 48.478L68.9624 50.1876L70.6675 48.478L72.3797 50.1876L74.0848 48.478L75.797 50.1876L77.5021 48.478L79.2143 50.1876L80.9194 48.478L82.7176 50.2738C84.7236 49.9075 86.2424 48.1476 86.2424 46.0286V44.3405H14.9803V44.3405Z" stroke="#211F1F" stroke-width="1.07746"/>
<path fill-rule="evenodd" clip-rule="evenodd" d="M14.9803 46.3231H86.2424V44.4124H14.9803V46.3231Z" fill="#D19BA3"/>
<path fill-rule="evenodd" clip-rule="evenodd" d="M14.9803 46.3231H86.2424V44.4124H14.9803V46.3231Z" stroke="#211F1F" stroke-width="1.07746"/>
<path fill-rule="evenodd" clip-rule="evenodd" d="M95.126 14.0638C95.126 21.1751 89.3803 26.9359 82.2949 26.9359C75.2024 26.9359 69.4567 21.1751 69.4567 14.0638C69.4567 6.9597 75.2024 1.19886 82.2949 1.19886C89.3803 1.19886 95.126 6.9597 95.126 14.0638Z" fill="#992032"/>
<path fill-rule="evenodd" clip-rule="evenodd" d="M95.126 14.0638C95.126 21.1751 89.3803 26.9359 82.2949 26.9359C75.2024 26.9359 69.4567 21.1751 69.4567 14.0638C69.4567 6.95971 75.2024 1.19886 82.2949 1.19886C89.3803 1.19886 95.126 6.95971 95.126 14.0638Z" stroke="#211F1F" stroke-width="1.07746" stroke-linecap="round" stroke-linejoin="round"/>
<path fill-rule="evenodd" clip-rule="evenodd" d="M88.1409 11.9735H84.3797V8.20238C84.3797 7.04591 83.4484 6.10492 82.2949 6.10492C81.1415 6.10492 80.203 7.04591 80.203 8.20238V11.9735H76.4418C75.8879 11.9735 75.3568 12.1941 74.9651 12.5868C74.5735 12.9795 74.3534 13.5121 74.3534 14.0674C74.3534 14.6227 74.5735 15.1553 74.9651 15.548C75.3568 15.9407 75.8879 16.1613 76.4418 16.1613H80.203V19.9324C80.203 21.0889 81.1415 22.0299 82.2949 22.0299C83.4484 22.0299 84.3797 21.0889 84.3797 19.9324V16.1613H88.1409C89.2943 16.1613 90.2328 15.2275 90.2328 14.071C90.2328 12.9073 89.2943 11.9735 88.1409 11.9735Z" fill="white"/>
<path fill-rule="evenodd" clip-rule="evenodd" d="M88.1409 11.9735H84.3797V8.20238C84.3797 7.04591 83.4484 6.10492 82.2949 6.10492C81.1415 6.10492 80.203 7.04591 80.203 8.20238V11.9735H76.4418C75.8879 11.9735 75.3568 12.1941 74.9651 12.5868C74.5735 12.9795 74.3534 13.5121 74.3534 14.0674C74.3534 14.6227 74.5735 15.1553 74.9651 15.548C75.3568 15.9407 75.8879 16.1613 76.4418 16.1613H80.203V19.9324C80.203 21.0889 81.1415 22.0298 82.2949 22.0298C83.4484 22.0298 84.3797 21.0889 84.3797 19.9324V16.1613H88.1409C89.2943 16.1613 90.2328 15.2275 90.2328 14.071C90.2328 12.9073 89.2943 11.9735 88.1409 11.9735V11.9735Z" stroke="black" stroke-width="1.07746"/>
</g>
<defs>
<clipPath id="clip0">
<rect width="96" height="51" fill="white"/>
</clipPath>
</defs>
</svg>
