<svg width="40" height="40" viewBox="0 0 40 40" fill="none" xmlns="http://www.w3.org/2000/svg">
<circle cx="20" cy="20" r="20" fill="#EBD2D6"/>
<g clip-path="url(#clip0)">
<path d="M30.3996 15.5428H9.59961V27.4286H30.3996V15.5428Z" fill="#9A2032"/>
<path d="M28.9142 15.5428H10.3428V14.0571L28.9142 15.5428Z" fill="#68121F" fill-opacity="0.3"/>
<path d="M24.828 21.4857C24.828 24.1525 22.6663 26.3142 19.9995 26.3142C17.3326 26.3142 15.1709 24.1525 15.1709 21.4857C15.1709 18.8188 17.3326 16.6571 19.9995 16.6571C22.6663 16.6571 24.828 18.8188 24.828 21.4857Z" fill="#9A2032"/>
<g filter="url(#filter0_d)">
<path d="M21.7261 21.8502H21.2456V21.3484H21.7261C21.7616 21.3455 21.7948 21.3292 21.8189 21.303C21.8431 21.2767 21.8565 21.2424 21.8565 21.2067C21.8565 21.171 21.8431 21.1366 21.8189 21.1104C21.7948 21.0841 21.7616 21.0679 21.7261 21.065H21.2456V20.3712C21.252 20.2934 21.2327 20.2156 21.1905 20.1499C21.1734 20.1285 21.1514 20.1116 21.1263 20.1006C21.1013 20.0895 21.0739 20.0847 21.0466 20.0866C21.0202 20.0851 20.9939 20.09 20.9698 20.1009C20.9458 20.1119 20.9247 20.1285 20.9085 20.1494C20.8668 20.2155 20.8477 20.2933 20.8542 20.3712V21.0659H19.9498L19.5652 20.435C19.5322 20.3787 19.5013 20.3261 19.4712 20.2753C19.4487 20.2361 19.4225 20.1991 19.3929 20.1649C19.3713 20.1409 19.3452 20.1212 19.3162 20.1069C19.2833 20.0923 19.2474 20.0853 19.2114 20.0866C19.1582 20.0866 19.1064 20.1036 19.0636 20.1351C19.0196 20.1647 18.9858 20.207 18.9665 20.2564C18.9465 20.3254 18.9377 20.3972 18.9405 20.469V21.0659H18.4644C18.4289 21.0689 18.3957 21.0851 18.3716 21.1113C18.3474 21.1376 18.334 21.172 18.334 21.2077C18.334 21.2433 18.3474 21.2777 18.3716 21.304C18.3957 21.3302 18.4289 21.3464 18.4644 21.3494H18.9403V21.8502H18.4644C18.4289 21.8532 18.3957 21.8694 18.3716 21.8956C18.3474 21.9219 18.334 21.9563 18.334 21.9919C18.334 22.0276 18.3474 22.062 18.3716 22.0882C18.3957 22.1145 18.4289 22.1307 18.4644 22.1337H18.9403V22.9269C18.9344 23.004 18.9544 23.0809 18.9971 23.1453C19.0139 23.167 19.0358 23.1842 19.0608 23.1956C19.0857 23.2069 19.1131 23.2121 19.1405 23.2106C19.1677 23.2116 19.1948 23.2062 19.2195 23.1948C19.2443 23.1834 19.266 23.1664 19.2829 23.1451C19.3265 23.081 19.3469 23.0039 19.3407 22.9267V22.1337H20.1599L20.603 22.8696C20.6338 22.9182 20.6656 22.9667 20.6974 23.0152C20.7241 23.0562 20.7552 23.0941 20.7901 23.1283C20.8171 23.1554 20.8493 23.1768 20.8848 23.1912C20.9225 23.205 20.9625 23.2118 21.0027 23.2111C21.1226 23.2111 21.2453 23.1713 21.2453 22.8767V22.1337H21.7261C21.7616 22.1307 21.7948 22.1145 21.8189 22.0882C21.8431 22.062 21.8565 22.0276 21.8565 21.9919C21.8565 21.9563 21.8431 21.9219 21.8189 21.8956C21.7948 21.8694 21.7616 21.8532 21.7261 21.8502ZM20.8544 21.3484V21.8493H20.4281L20.1226 21.3484H20.8544ZM19.3414 20.774L19.5171 21.0652H19.3414V20.774ZM19.3414 21.8502V21.3484H19.6877L19.9891 21.8493L19.3414 21.8502ZM20.8544 22.5491L20.6011 22.1337H20.8544V22.5491Z" fill="white"/>
</g>
<path d="M17.4348 25.5715C16.0769 24.7168 15.1713 23.2088 15.1713 21.4857C15.1713 19.7627 16.0769 18.2547 17.4348 17.4H13.6763C13.6819 17.4613 13.6856 17.523 13.6856 17.5857C13.6856 18.7141 12.7708 19.6286 11.6427 19.6286C11.58 19.6286 11.5183 19.6249 11.457 19.6193V23.3522C11.5183 23.3466 11.58 23.3429 11.6427 23.3429C12.7708 23.3429 13.6856 24.2573 13.6856 25.3857C13.6856 25.4485 13.6819 25.5102 13.6763 25.5715H17.4348Z" fill="#EAEAD7"/>
<path d="M28.3565 19.6286C27.2281 19.6286 26.3137 18.7141 26.3137 17.5857C26.3137 17.523 26.3174 17.4613 26.3229 17.4H22.5645C23.9224 18.2547 24.8279 19.7627 24.8279 21.4857C24.8279 23.2088 23.9224 24.7168 22.5645 25.5715H26.3229C26.3174 25.5102 26.3137 25.4485 26.3137 25.3857C26.3137 24.2573 27.2281 23.3429 28.3565 23.3429C28.4193 23.3429 28.4809 23.3466 28.5422 23.3522V19.6193C28.4809 19.6249 28.4193 19.6286 28.3565 19.6286Z" fill="#EAEAD7"/>
<path d="M11.6424 18.5142C11.1302 18.5142 10.7139 18.0979 10.7139 17.5857C10.7139 17.0735 11.1302 16.6571 11.6424 16.6571C12.1546 16.6571 12.571 17.0735 12.571 17.5857C12.571 18.0979 12.1546 18.5142 11.6424 18.5142Z" fill="#EAEAD7"/>
<path d="M28.3563 18.5142C27.8441 18.5142 27.4277 18.0979 27.4277 17.5857C27.4277 17.0735 27.8441 16.6571 28.3563 16.6571C28.8685 16.6571 29.2849 17.0735 29.2849 17.5857C29.2849 18.0979 28.8685 18.5142 28.3563 18.5142Z" fill="#EAEAD7"/>
<path d="M11.6424 26.3143C11.1302 26.3143 10.7139 25.8979 10.7139 25.3857C10.7139 24.8735 11.1302 24.4572 11.6424 24.4572C12.1546 24.4572 12.571 24.8735 12.571 25.3857C12.571 25.8979 12.1546 26.3143 11.6424 26.3143Z" fill="#EAEAD7"/>
<path d="M28.3563 26.3143C27.8441 26.3143 27.4277 25.8979 27.4277 25.3857C27.4277 24.8735 27.8441 24.4572 28.3563 24.4572C28.8685 24.4572 29.2849 24.8735 29.2849 25.3857C29.2849 25.8979 28.8685 26.3143 28.3563 26.3143Z" fill="#EAEAD7"/>
<path d="M11.457 12.5714V14.1463L28.9142 15.5428H30.0285L11.457 12.5714Z" fill="#9A2032" fill-opacity="0.3"/>
</g>
<defs>
<filter id="filter0_d" x="12.334" y="16.0862" width="15.5225" height="15.1249" filterUnits="userSpaceOnUse" color-interpolation-filters="sRGB">
<feFlood flood-opacity="0" result="BackgroundImageFix"/>
<feColorMatrix in="SourceAlpha" type="matrix" values="0 0 0 0 0 0 0 0 0 0 0 0 0 0 0 0 0 0 127 0"/>
<feOffset dy="2"/>
<feGaussianBlur stdDeviation="3"/>
<feColorMatrix type="matrix" values="0 0 0 0 0 0 0 0 0 0 0 0 0 0 0 0 0 0 0.051 0"/>
<feBlend mode="normal" in2="BackgroundImageFix" result="effect1_dropShadow"/>
<feBlend mode="normal" in="SourceGraphic" in2="effect1_dropShadow" result="shape"/>
</filter>
<clipPath id="clip0">
<rect width="20.8" height="20.8" fill="white" transform="translate(9.59961 9.59998)"/>
</clipPath>
</defs>
</svg>
