<svg width="119" height="114" viewBox="0 0 119 114" fill="none" xmlns="http://www.w3.org/2000/svg">
<g clip-path="url(#clip0)">
<path d="M72.0267 6.35621L10.0289 19.6587L28.4087 105.32L90.4064 92.017L72.0267 6.35621Z" fill="#E0E0E0"/>
<g opacity="0.5">
<path opacity="0.5" d="M71.2905 8.02929L11.3881 20.8822L29.1465 103.648L89.049 90.7947L71.2905 8.02929Z" fill="url(#paint0_linear)"/>
</g>
<path d="M70.6579 8.80213L12.2805 21.3278L29.6466 102.265L88.024 89.7389L70.6579 8.80213Z" fill="#FAFAFA"/>
<path d="M55.273 8.4329L26.3127 14.6467L27.818 21.6619L56.7782 15.4481L55.273 8.4329Z" fill="url(#paint1_linear)"/>
<path d="M39.3219 4.68797C37.086 5.16823 35.6713 7.41283 36.1632 9.70096C36.6551 11.9891 38.8648 13.4574 41.0964 12.9772C43.3279 12.4969 44.7469 10.2523 44.2551 7.96419C43.7632 5.67606 41.5578 4.20772 39.3219 4.68797ZM40.7249 11.2317C40.2524 11.3444 39.757 11.3138 39.3019 11.1439C38.8467 10.974 38.4525 10.6725 38.1694 10.2777C37.8863 9.88287 37.7272 9.41272 37.7123 8.92715C37.6974 8.44158 37.8274 7.96256 38.0858 7.55116C38.3442 7.13976 38.7192 6.8146 39.163 6.61712C39.6069 6.41963 40.0995 6.35878 40.578 6.4423C41.0566 6.52583 41.4995 6.74995 41.8502 7.0861C42.2009 7.42226 42.4436 7.85523 42.5473 8.32983C42.619 8.64006 42.6286 8.9614 42.5758 9.27539C42.5229 9.58937 42.4085 9.88981 42.2391 10.1595C42.0698 10.4291 41.8489 10.6626 41.589 10.8466C41.3292 11.0307 41.0355 11.1615 40.7249 11.2317Z" fill="url(#paint2_linear)"/>
<path d="M54.9034 8.19745L26.5531 14.2804L27.992 20.9863L56.3422 14.9034L54.9034 8.19745Z" fill="#9A2032"/>
<path d="M39.3218 4.68797C38.5382 4.85617 37.822 5.25296 37.2639 5.82816C36.7057 6.40337 36.3307 7.13116 36.1862 7.9195C36.0417 8.70785 36.1342 9.52134 36.452 10.2571C36.7698 10.9929 37.2986 11.6179 37.9716 12.0531C38.6447 12.4884 39.4316 12.7142 40.233 12.7022C41.0344 12.6902 41.8142 12.4408 42.4739 11.9856C43.1336 11.5304 43.6434 10.8898 43.939 10.1448C44.2346 9.39979 44.3026 8.58389 44.1345 7.80023C44.0229 7.27985 43.8099 6.78656 43.5076 6.34852C43.2053 5.91048 42.8197 5.53627 42.3728 5.24727C41.9259 4.95826 41.4264 4.76012 40.9029 4.66416C40.3794 4.56819 39.8422 4.57629 39.3218 4.68797ZM40.6625 10.9415C40.2101 11.0386 39.7392 10.9993 39.3092 10.8287C38.8792 10.6581 38.5094 10.3638 38.2467 9.98304C37.9839 9.60228 37.84 9.15216 37.8331 8.6896C37.8262 8.22704 37.9566 7.77282 38.2079 7.38438C38.4591 6.99594 38.8199 6.69073 39.2446 6.50735C39.6693 6.32397 40.1389 6.27066 40.5939 6.35416C41.0489 6.43765 41.469 6.65421 41.8009 6.97643C42.1328 7.29866 42.3617 7.71208 42.4587 8.16442C42.5887 8.77088 42.4725 9.40414 42.1357 9.92493C41.7988 10.4457 41.2689 10.8114 40.6625 10.9415Z" fill="#9A2032"/>
<path d="M100.827 16.9629H37.4182V104.573H100.827V16.9629Z" fill="#E0E0E0"/>
<g opacity="0.5">
<path opacity="0.5" d="M99.7563 18.4443H38.4905V103.093H99.7563V18.4443Z" fill="url(#paint3_linear)"/>
</g>
<path d="M98.9757 19.0682H39.2697V101.847H98.9757V19.0682Z" fill="white"/>
<path d="M84.0107 15.4786H54.3912V22.6535H84.0107V15.4786Z" fill="url(#paint4_linear)"/>
<path d="M69.2009 8.47492C66.9142 8.47492 65.0599 10.3727 65.0599 12.7146C65.0599 15.0564 66.9142 16.9542 69.2009 16.9542C71.4876 16.9542 73.3419 15.0564 73.3419 12.7146C73.3419 10.3727 71.4876 8.47492 69.2009 8.47492ZM69.2009 15.1608C68.7148 15.1724 68.2362 15.0388 67.8264 14.7771C67.4165 14.5154 67.094 14.1375 66.8999 13.6916C66.7058 13.2458 66.649 12.7522 66.7367 12.2739C66.8245 11.7956 67.0528 11.3543 67.3925 11.0064C67.7321 10.6584 68.1678 10.4196 68.6439 10.3204C69.1199 10.2212 69.6147 10.2661 70.0651 10.4495C70.5155 10.6328 70.901 10.9462 71.1725 11.3496C71.444 11.7531 71.589 12.2283 71.5892 12.7146C71.5938 13.3537 71.3452 13.9686 70.8976 14.4249C70.45 14.8811 69.84 15.1416 69.2009 15.1492V15.1608Z" fill="url(#paint5_linear)"/>
<path d="M83.6988 15.171H54.7032V22.0296H83.6988V15.171Z" fill="#9A2032"/>
<path d="M69.2009 8.47492C68.3994 8.47492 67.6159 8.7126 66.9495 9.15789C66.283 9.60318 65.7636 10.2361 65.4569 10.9766C65.1502 11.7171 65.0699 12.5319 65.2263 13.318C65.3827 14.1041 65.7686 14.8262 66.3354 15.3929C66.9021 15.9597 67.6242 16.3456 68.4103 16.502C69.1964 16.6584 70.0112 16.5781 70.7517 16.2714C71.4922 15.9647 72.1251 15.4452 72.5704 14.7788C73.0157 14.1124 73.2534 13.3289 73.2534 12.5274C73.2534 11.4526 72.8264 10.4218 72.0664 9.66186C71.3064 8.90188 70.2757 8.47492 69.2009 8.47492ZM69.2009 14.8663C68.7387 14.8657 68.287 14.7282 67.9029 14.4711C67.5187 14.214 67.2194 13.8489 67.0427 13.4218C66.8659 12.9947 66.8197 12.5248 66.9098 12.0714C66.9999 11.6181 67.2223 11.2016 67.5489 10.8746C67.8756 10.5475 68.2918 10.3246 68.745 10.2339C69.1983 10.1433 69.6682 10.1889 70.0955 10.3651C70.5228 10.5414 70.8884 10.8402 71.1459 11.224C71.4035 11.6078 71.5416 12.0594 71.5427 12.5216C71.5425 12.8289 71.4818 13.1331 71.364 13.4169C71.2462 13.7007 71.0736 13.9585 70.8561 14.1755C70.6386 14.3926 70.3805 14.5647 70.0965 14.682C69.8125 14.7993 69.5082 14.8594 69.2009 14.859V14.8663Z" fill="#9A2032"/>
<g opacity="0.5">
<path opacity="0.5" d="M2.76113 106.941H2.21558V110.036H2.76113V106.941Z" fill="#47E6B1"/>
<path opacity="0.5" d="M4.0365 108.762V108.217H0.941658V108.762H4.0365Z" fill="#47E6B1"/>
</g>
<g opacity="0.5">
<path opacity="0.5" d="M66.0539 0H65.5083V3.09485H66.0539V0Z" fill="#47E6B1"/>
<path opacity="0.5" d="M67.3292 1.81947V1.27393L64.2344 1.27393V1.81947L67.3292 1.81947Z" fill="#47E6B1"/>
</g>
<path opacity="0.5" d="M111.879 112.094C111.728 112.028 111.607 111.909 111.538 111.76C111.47 111.611 111.458 111.442 111.506 111.285C111.514 111.261 111.519 111.237 111.52 111.211C111.525 111.14 111.506 111.068 111.466 111.008C111.427 110.948 111.369 110.902 111.302 110.877C111.234 110.852 111.16 110.849 111.091 110.87C111.022 110.89 110.962 110.932 110.918 110.989C110.903 111.01 110.891 111.032 110.881 111.055C110.815 111.205 110.697 111.326 110.547 111.395C110.398 111.464 110.229 111.475 110.072 111.428C110.048 111.42 110.024 111.415 109.998 111.413C109.927 111.409 109.855 111.428 109.795 111.467C109.735 111.506 109.689 111.564 109.664 111.632C109.639 111.699 109.636 111.773 109.657 111.842C109.677 111.911 109.719 111.972 109.776 112.015C109.797 112.03 109.819 112.043 109.842 112.053C109.992 112.118 110.113 112.237 110.182 112.386C110.251 112.535 110.262 112.704 110.215 112.861C110.207 112.885 110.202 112.91 110.2 112.935C110.196 113.007 110.215 113.078 110.254 113.139C110.293 113.199 110.351 113.245 110.419 113.27C110.486 113.295 110.56 113.297 110.629 113.277C110.698 113.257 110.759 113.215 110.802 113.157C110.817 113.137 110.83 113.115 110.84 113.092C110.905 112.941 111.024 112.82 111.173 112.751C111.322 112.683 111.491 112.671 111.648 112.719C111.672 112.727 111.697 112.731 111.722 112.733C111.794 112.738 111.865 112.719 111.926 112.679C111.986 112.64 112.032 112.582 112.057 112.515C112.082 112.447 112.084 112.373 112.064 112.304C112.044 112.235 112.002 112.175 111.944 112.131C111.924 112.116 111.902 112.104 111.879 112.094Z" fill="#4D8AF0"/>
<path opacity="0.5" d="M19.83 82.3406C19.6795 82.2751 19.5584 82.1566 19.4896 82.0076C19.4208 81.8586 19.4093 81.6895 19.4571 81.5325C19.4648 81.5085 19.4697 81.4836 19.4716 81.4585C19.4759 81.3866 19.457 81.3153 19.4176 81.255C19.3783 81.1947 19.3205 81.1487 19.253 81.1238C19.1854 81.0989 19.1117 81.0964 19.0426 81.1167C18.9735 81.137 18.9128 81.179 18.8695 81.2365C18.8544 81.2567 18.8417 81.2786 18.8317 81.3018C18.7662 81.4522 18.6477 81.5734 18.4987 81.6422C18.3496 81.7109 18.1806 81.7225 18.0236 81.6747C17.9995 81.6669 17.9747 81.6621 17.9496 81.6602C17.8777 81.6558 17.8064 81.6748 17.7461 81.7141C17.6858 81.7535 17.6398 81.8112 17.6149 81.8788C17.59 81.9463 17.5875 82.0201 17.6078 82.0892C17.6281 82.1582 17.6701 82.2189 17.7276 82.2623C17.7478 82.2774 17.7697 82.29 17.7929 82.3C17.9433 82.3655 18.0645 82.4841 18.1332 82.6331C18.202 82.7821 18.2136 82.9512 18.1658 83.1082C18.158 83.1322 18.1532 83.157 18.1512 83.1822C18.1469 83.2541 18.1658 83.3254 18.2052 83.3857C18.2446 83.4459 18.3023 83.4919 18.3699 83.5168C18.4374 83.5417 18.5112 83.5442 18.5803 83.5239C18.6493 83.5036 18.71 83.4617 18.7534 83.4042C18.7685 83.384 18.7811 83.3621 18.7911 83.3389C18.8566 83.1884 18.9751 83.0673 19.1242 82.9985C19.2732 82.9298 19.4423 82.9182 19.5993 82.966C19.6233 82.9737 19.6481 82.9786 19.6733 82.9805C19.7451 82.9848 19.8165 82.9659 19.8767 82.9265C19.937 82.8872 19.983 82.8294 20.0079 82.7619C20.0328 82.6943 20.0353 82.6206 20.015 82.5515C19.9947 82.4824 19.9527 82.4217 19.8953 82.3784C19.8751 82.3633 19.8531 82.3506 19.83 82.3406Z" fill="#FDD835"/>
<path opacity="0.5" d="M96.4989 9.89248C96.3484 9.82698 96.2273 9.70844 96.1585 9.55942C96.0898 9.4104 96.0782 9.24131 96.126 9.08431C96.1337 9.0603 96.1386 9.03546 96.1405 9.01031C96.1449 8.93845 96.1259 8.86711 96.0866 8.80684C96.0472 8.74657 95.9895 8.70058 95.9219 8.67568C95.8544 8.65078 95.7806 8.64829 95.7115 8.66857C95.6425 8.68886 95.5818 8.73085 95.5384 8.78832C95.5233 8.80853 95.5106 8.83045 95.5007 8.85361C95.4352 9.00409 95.3166 9.12523 95.1676 9.19399C95.0186 9.26275 94.8495 9.27432 94.6925 9.2265C94.6685 9.21879 94.6437 9.21392 94.6185 9.21199C94.5466 9.20767 94.4753 9.22659 94.415 9.26596C94.3548 9.30534 94.3088 9.36307 94.2839 9.43061C94.259 9.49816 94.2565 9.57193 94.2768 9.641C94.2971 9.71007 94.339 9.77078 94.3965 9.81413C94.4167 9.82922 94.4386 9.84188 94.4618 9.85186C94.6123 9.91736 94.7334 10.0359 94.8022 10.1849C94.8709 10.3339 94.8825 10.503 94.8347 10.66C94.827 10.684 94.8221 10.7089 94.8202 10.734C94.8159 10.8059 94.8348 10.8772 94.8742 10.9375C94.9135 10.9978 94.9713 11.0438 95.0388 11.0687C95.1064 11.0936 95.1801 11.0961 95.2492 11.0758C95.3183 11.0555 95.379 11.0135 95.4223 10.956C95.4374 10.9358 95.4501 10.9139 95.4601 10.8907C95.5256 10.7403 95.6441 10.6191 95.7931 10.5504C95.9421 10.4816 96.1112 10.47 96.2682 10.5178C96.2922 10.5256 96.3171 10.5304 96.3422 10.5323C96.4141 10.5367 96.4854 10.5178 96.5457 10.4784C96.606 10.439 96.6519 10.3813 96.6769 10.3137C96.7018 10.2462 96.7042 10.1724 96.684 10.1033C96.6637 10.0343 96.6217 9.97356 96.5642 9.93021C96.544 9.91512 96.5221 9.90246 96.4989 9.89248Z" fill="#FDD835"/>
<path opacity="0.5" d="M117.909 46.7202C118.512 46.7202 119.002 46.231 119.002 45.6276C119.002 45.0242 118.512 44.535 117.909 44.535C117.306 44.535 116.816 45.0242 116.816 45.6276C116.816 46.231 117.306 46.7202 117.909 46.7202Z" fill="#F55F44"/>
<path opacity="0.5" d="M33.4774 109.427C34.0808 109.427 34.57 108.938 34.57 108.334C34.57 107.731 34.0808 107.242 33.4774 107.242C32.874 107.242 32.3849 107.731 32.3849 108.334C32.3849 108.938 32.874 109.427 33.4774 109.427Z" fill="#F55F44"/>
<path opacity="0.5" d="M106.689 70.3356C107.292 70.3356 107.781 69.8464 107.781 69.243C107.781 68.6396 107.292 68.1505 106.689 68.1505C106.085 68.1505 105.596 68.6396 105.596 69.243C105.596 69.8464 106.085 70.3356 106.689 70.3356Z" fill="#F55F44"/>
<path opacity="0.5" d="M12.6435 15.0723C13.2469 15.0723 13.736 14.5832 13.736 13.9798C13.736 13.3764 13.2469 12.8872 12.6435 12.8872C12.0401 12.8872 11.5509 13.3764 11.5509 13.9798C11.5509 14.5832 12.0401 15.0723 12.6435 15.0723Z" fill="#4D8AF0"/>
<path opacity="0.5" d="M1.09256 44.876C1.69596 44.876 2.18511 44.3869 2.18511 43.7835C2.18511 43.1801 1.69596 42.6909 1.09256 42.6909C0.489154 42.6909 0 43.1801 0 43.7835C0 44.3869 0.489154 44.876 1.09256 44.876Z" fill="#47E6B1"/>
</g>
<defs>
<linearGradient id="paint0_linear" x1="59.097" y1="97.2212" x2="41.3386" y2="14.4559" gradientUnits="userSpaceOnUse">
<stop stop-color="#808080" stop-opacity="0.25"/>
<stop offset="0.54" stop-color="#808080" stop-opacity="0.12"/>
<stop offset="1" stop-color="#808080" stop-opacity="0.1"/>
</linearGradient>
<linearGradient id="paint1_linear" x1="15932.2" y1="-2074.68" x2="15857.8" y2="-2421.58" gradientUnits="userSpaceOnUse">
<stop stop-color="#808080" stop-opacity="0.25"/>
<stop offset="0.54" stop-color="#808080" stop-opacity="0.12"/>
<stop offset="1" stop-color="#808080" stop-opacity="0.1"/>
</linearGradient>
<linearGradient id="paint2_linear" x1="4652.25" y1="236.643" x2="4548.41" y2="-247.315" gradientUnits="userSpaceOnUse">
<stop stop-color="#808080" stop-opacity="0.25"/>
<stop offset="0.54" stop-color="#808080" stop-opacity="0.12"/>
<stop offset="1" stop-color="#808080" stop-opacity="0.1"/>
</linearGradient>
<linearGradient id="paint3_linear" x1="29225.5" y1="60164.2" x2="29225.5" y2="10779" gradientUnits="userSpaceOnUse">
<stop stop-color="#808080" stop-opacity="0.25"/>
<stop offset="0.54" stop-color="#808080" stop-opacity="0.12"/>
<stop offset="1" stop-color="#808080" stop-opacity="0.1"/>
</linearGradient>
<linearGradient id="paint4_linear" x1="14181.1" y1="1135.69" x2="14181.1" y2="780.895" gradientUnits="userSpaceOnUse">
<stop stop-color="#808080" stop-opacity="0.25"/>
<stop offset="0.54" stop-color="#808080" stop-opacity="0.12"/>
<stop offset="1" stop-color="#808080" stop-opacity="0.1"/>
</linearGradient>
<linearGradient id="paint5_linear" x1="5587.96" y1="1504.13" x2="5587.96" y2="1008.61" gradientUnits="userSpaceOnUse">
<stop stop-color="#808080" stop-opacity="0.25"/>
<stop offset="0.54" stop-color="#808080" stop-opacity="0.12"/>
<stop offset="1" stop-color="#808080" stop-opacity="0.1"/>
</linearGradient>
<clipPath id="clip0">
<rect width="119" height="113.291" fill="white"/>
</clipPath>
</defs>
</svg>
