<svg width="20" height="20" viewBox="0 0 20 20" fill="none" xmlns="http://www.w3.org/2000/svg">
<g clip-path="url(#clip0)">
<path d="M18.4592 12.5639C18.1841 12.5639 17.9611 12.7869 17.9611 13.062V17.4846C17.9601 18.3096 17.2918 18.9781 16.4668 18.9789H2.49052C1.66553 18.9781 0.99718 18.3096 0.996207 17.4846V4.50452C0.99718 3.67973 1.66553 3.01118 2.49052 3.01021H6.91313C7.18826 3.01021 7.41124 2.78723 7.41124 2.5121C7.41124 2.23717 7.18826 2.014 6.91313 2.014H2.49052C1.11567 2.01556 0.00155657 3.12968 0 4.50452V17.4848C0.00155657 18.8596 1.11567 19.9738 2.49052 19.9753H16.4668C17.8416 19.9738 18.9558 18.8596 18.9573 17.4848V13.062C18.9573 12.7869 18.7343 12.5639 18.4592 12.5639V12.5639Z" fill="white"/>
<path d="M18.7597 0.732355C17.8843 -0.143024 16.4651 -0.143024 15.5898 0.732355L6.70328 9.61883C6.64238 9.67974 6.59841 9.75523 6.57545 9.83812L5.40685 14.057C5.35879 14.23 5.40763 14.4152 5.53449 14.5423C5.66154 14.6691 5.84678 14.718 6.01975 14.6701L10.2386 13.5013C10.3215 13.4784 10.397 13.4344 10.4579 13.3735L19.3442 4.48681C20.2182 3.61085 20.2182 2.19281 19.3442 1.31685L18.7597 0.732355ZM7.7886 9.9426L15.0615 2.66951L17.4071 5.01507L10.134 12.2882L7.7886 9.9426ZM7.32007 10.8828L9.19399 12.7569L6.60191 13.4751L7.32007 10.8828ZM18.6399 3.78246L18.1116 4.31072L15.7659 1.96497L16.2943 1.4367C16.7805 0.950469 17.5689 0.950469 18.0552 1.4367L18.6399 2.0212C19.1253 2.50802 19.1253 3.29584 18.6399 3.78246V3.78246Z" fill="white"/>
</g>
<defs>
<clipPath id="clip0">
<rect width="20" height="20" fill="white"/>
</clipPath>
</defs>
</svg>
