<svg width="55" height="55" viewBox="0 0 55 55" fill="none" xmlns="http://www.w3.org/2000/svg">
<circle cx="27.5" cy="27.5" r="27.5" fill="#EBD2D6"/>
<g clip-path="url(#clip0)">
<path d="M38.3377 15.5847H15.6685C13.6449 15.5847 12 17.2297 12 19.2532V34.7467C12 36.7703 13.6449 38.4153 15.6685 38.4153H38.3315C40.3551 38.4153 42 36.7703 42 34.7467V19.2595C42.0062 17.2359 40.3613 15.5847 38.3377 15.5847ZM40.3302 34.7467C40.3302 35.8454 39.4364 36.7393 38.3377 36.7393H15.6685C14.5698 36.7393 13.676 35.8454 13.676 34.7467V19.2595C13.676 18.1608 14.5698 17.2669 15.6685 17.2669H38.3315C39.4302 17.2669 40.324 18.1608 40.324 19.2595V34.7467H40.3302Z" fill="#9A2032"/>
<path d="M30.9201 26.8077L38.2572 20.2279C38.5986 19.9175 38.6296 19.3899 38.3193 19.0423C38.0089 18.7009 37.4813 18.6699 37.1337 18.9802L27.0157 28.0615L25.0418 26.2987C25.0356 26.2925 25.0294 26.2862 25.0294 26.28C24.9859 26.2366 24.9425 26.1993 24.8928 26.1621L16.8605 18.974C16.5129 18.6636 15.9853 18.6947 15.6749 19.0423C15.3646 19.3899 15.3956 19.9175 15.7432 20.2279L23.1672 26.8635L15.7743 33.7847C15.4391 34.1013 15.4204 34.6289 15.737 34.9703C15.9046 35.1441 16.1281 35.2372 16.3515 35.2372C16.5564 35.2372 16.7612 35.1627 16.9226 35.0137L24.4273 27.9933L26.4633 29.812C26.6247 29.9548 26.8233 30.0231 27.0219 30.0231C27.2206 30.0231 27.4254 29.9486 27.5806 29.8058L29.6725 27.9312L37.1337 35.02C37.2951 35.1751 37.5061 35.2496 37.7109 35.2496C37.9344 35.2496 38.1517 35.1627 38.3193 34.9889C38.6358 34.6537 38.6234 34.1199 38.2882 33.8033L30.9201 26.8077Z" fill="#9A2032"/>
</g>
<defs>
<clipPath id="clip0">
<rect width="30" height="30" fill="white" transform="translate(12 12)"/>
</clipPath>
</defs>
</svg>
