<svg width="40" height="40" viewBox="0 0 40 40" fill="none" xmlns="http://www.w3.org/2000/svg">
<circle cx="20" cy="20" r="20" fill="#EBD2D6"/>
<g filter="url(#filter0_d)">
<path d="M22.0397 10.6187C22.0397 10.6187 22.5918 8.05598 24.6666 11.0599C24.6666 11.0599 28.0038 14.7051 27.0193 19.2874C26.8036 20.2704 26.4709 21.2247 26.0279 22.1303C25.2883 23.6338 24.2593 24.9803 22.9985 26.0944L20.2989 28.5465C20.2989 28.5465 17.4369 30.421 18.0447 28.0507C18.0447 28.0507 18.0746 27.0687 18.5507 26.8727C18.5507 26.8727 19.4345 26.3418 18.8622 25.5736C18.8622 25.5736 18.5755 25.0141 19.388 24.5188C19.486 24.4655 19.5715 24.3922 19.6387 24.3038C19.7059 24.2154 19.7534 24.1139 19.7779 24.006C19.8024 23.898 19.8035 23.7862 19.781 23.6779C19.7585 23.5695 19.713 23.4671 19.6475 23.3775C19.6084 23.1468 19.6473 22.9098 19.7583 22.7033C19.8692 22.4967 20.046 22.3321 20.2612 22.2349C20.2612 22.2349 20.8813 22.1439 20.5206 21.0941C20.5206 21.0941 20.4461 20.4282 20.9595 20.3031C20.9595 20.3031 21.7034 20.1939 21.0428 19.3383C21.0428 19.3383 20.6495 18.7443 21.4449 18.3013C21.4449 18.3013 21.9583 18.1757 21.3855 17.2319C21.3855 17.2319 21.0465 16.8307 21.7886 16.3704C21.7886 16.3704 22.1957 16.2103 21.7651 15.3697C21.7651 15.3697 21.3878 14.5478 22.0071 14.2812C22.0071 14.2812 22.4671 13.9628 22.1248 13.2109C22.1262 13.2127 21.6896 11.3219 22.0397 10.6187Z" fill="#9A2032"/>
</g>
<g filter="url(#filter1_d)">
<path d="M20.7486 10.9603C20.7486 10.9603 21.3085 9.62434 20.14 9.94684C18.9714 10.2693 16.7301 12.0524 16.7301 12.0524C16.7301 12.0524 13.2295 13.8955 12.8008 19.4734C12.8008 19.4734 12.8689 25.1537 14.549 27.5636L16.0147 29.5541C16.0147 29.5541 16.6726 29.8834 16.8612 28.7781L17.3645 26.7257C17.4073 26.6042 17.477 26.4936 17.5685 26.4021C17.66 26.3105 17.7711 26.2404 17.8935 26.1967C17.8935 26.1967 18.3536 26.0539 17.8526 25.2502C17.8526 25.2502 17.7081 24.7953 18.3274 24.5292C18.4125 24.5028 18.4902 24.4574 18.5546 24.3964C18.6775 24.2244 18.7461 24.0202 18.7515 23.8097C18.757 23.5992 18.6992 23.3918 18.5855 23.2138C18.5445 22.8753 18.5388 22.5336 18.5684 22.194C18.6485 21.3414 18.9398 20.5215 19.4168 19.8069C19.4168 19.8069 21.8054 15.7959 20.8185 13.7854C20.4555 12.882 20.4307 11.8801 20.7486 10.9603Z" fill="#9A2032"/>
</g>
<defs>
<filter id="filter0_d" x="16.6091" y="8.69939" width="11.9428" height="22.3519" filterUnits="userSpaceOnUse" color-interpolation-filters="sRGB">
<feFlood flood-opacity="0" result="BackgroundImageFix"/>
<feColorMatrix in="SourceAlpha" type="matrix" values="0 0 0 0 0 0 0 0 0 0 0 0 0 0 0 0 0 0 127 0"/>
<feOffset dy="0.450292"/>
<feGaussianBlur stdDeviation="0.675439"/>
<feColorMatrix type="matrix" values="0 0 0 0 0 0 0 0 0 0 0 0 0 0 0 0 0 0 0.02 0"/>
<feBlend mode="normal" in2="BackgroundImageFix" result="effect1_dropShadow"/>
<feBlend mode="normal" in="SourceGraphic" in2="effect1_dropShadow" result="shape"/>
</filter>
<filter id="filter1_d" x="11.4499" y="8.99602" width="10.9585" height="22.4051" filterUnits="userSpaceOnUse" color-interpolation-filters="sRGB">
<feFlood flood-opacity="0" result="BackgroundImageFix"/>
<feColorMatrix in="SourceAlpha" type="matrix" values="0 0 0 0 0 0 0 0 0 0 0 0 0 0 0 0 0 0 127 0"/>
<feOffset dy="0.450292"/>
<feGaussianBlur stdDeviation="0.675439"/>
<feColorMatrix type="matrix" values="0 0 0 0 0 0 0 0 0 0 0 0 0 0 0 0 0 0 0.02 0"/>
<feBlend mode="normal" in2="BackgroundImageFix" result="effect1_dropShadow"/>
<feBlend mode="normal" in="SourceGraphic" in2="effect1_dropShadow" result="shape"/>
</filter>
</defs>
</svg>
