<svg width="93" height="51" viewBox="0 0 93 51" fill="none" xmlns="http://www.w3.org/2000/svg">
<g clip-path="url(#clip0)">
<path fill-rule="evenodd" clip-rule="evenodd" d="M92.1168 50.0729H4.23666V32.8179C4.23683 31.9077 4.59892 31.0349 5.2433 30.3914C5.88768 29.7478 6.76159 29.3863 7.6728 29.3863H88.6801C89.1314 29.3862 89.5782 29.475 89.9952 29.6474C90.4122 29.8199 90.791 30.0727 91.1102 30.3914C91.4293 30.7101 91.6825 31.0885 91.8552 31.5049C92.0279 31.9214 92.1168 32.3677 92.1168 32.8185V50.0729Z" fill="white"/>
<path fill-rule="evenodd" clip-rule="evenodd" d="M92.1168 50.0729H4.23666V32.8179C4.23683 31.9077 4.59892 31.0349 5.2433 30.3914C5.88768 29.7478 6.76159 29.3863 7.6728 29.3863H88.6801C89.1314 29.3862 89.5782 29.475 89.9952 29.6474C90.4122 29.8199 90.791 30.0727 91.1102 30.3914C91.4293 30.7101 91.6825 31.0885 91.8552 31.5049C92.0279 31.9214 92.1168 32.3677 92.1168 32.8185V50.0729Z" stroke="#221F1F" stroke-width="0.911765"/>
<path fill-rule="evenodd" clip-rule="evenodd" d="M67.2706 50.0729H92.1168V32.8179C92.1166 31.9077 91.7545 31.0349 91.1102 30.3914C90.4658 29.7478 89.5919 29.3863 88.6807 29.3863H70.7067C69.7954 29.3863 68.9214 29.7479 68.277 30.3916C67.6326 31.0352 67.2706 31.9082 67.2706 32.8185V50.0729Z" fill="#992032" fill-opacity="0.45"/>
<path fill-rule="evenodd" clip-rule="evenodd" d="M67.2706 50.0729H92.1168V32.8179C92.1166 31.9077 91.7545 31.0349 91.1102 30.3914C90.4658 29.7478 89.5919 29.3863 88.6807 29.3863H70.7067C69.7954 29.3863 68.9214 29.7479 68.277 30.3916C67.6326 31.0352 67.2706 31.9082 67.2706 32.8185V50.0729Z" stroke="#231F1F" stroke-width="0.911765" stroke-linecap="round"/>
<mask id="mask0" mask-type="alpha" maskUnits="userSpaceOnUse" x="-1" y="0" width="94" height="51">
<path d="M-0.607849 51H92.5727V0H-0.607849V51Z" fill="white"/>
</mask>
<g mask="url(#mask0)">
<path fill-rule="evenodd" clip-rule="evenodd" d="M7.41812 47.2673H64.0892V32.1913H7.41812V47.2673Z" fill="white"/>
</g>
<mask id="mask1" mask-type="alpha" maskUnits="userSpaceOnUse" x="7" y="32" width="9" height="16">
<path d="M15.81 47.2673H7.41812V32.1919H15.81V47.2673Z" fill="white"/>
</mask>
<g mask="url(#mask1)">
<path d="M15.81 4.05086L-9.31702 54.6854" stroke="#B0BFC9" stroke-width="0.911765"/>
</g>
<mask id="mask2" mask-type="alpha" maskUnits="userSpaceOnUse" x="7" y="32" width="11" height="16">
<path d="M17.2761 47.2673H7.41812V32.1919H17.2761V47.2673Z" fill="white"/>
</mask>
<g mask="url(#mask2)">
<path d="M17.2761 4.05086L-7.85089 54.6854" stroke="#B0BFC9" stroke-width="0.911765"/>
</g>
<mask id="mask3" mask-type="alpha" maskUnits="userSpaceOnUse" x="7" y="32" width="12" height="16">
<path d="M18.7428 47.2673H7.41812V32.1919H18.7428V47.2673Z" fill="white"/>
</mask>
<g mask="url(#mask3)">
<path d="M18.7429 4.05086L-6.38416 54.6854" stroke="#B0BFC9" stroke-width="0.911765"/>
</g>
<mask id="mask4" mask-type="alpha" maskUnits="userSpaceOnUse" x="7" y="32" width="14" height="16">
<path d="M20.2096 47.2673H7.41812V32.1919H20.2096V47.2673Z" fill="white"/>
</mask>
<g mask="url(#mask4)">
<path d="M20.2096 4.05086L-4.91745 54.6854" stroke="#B0BFC9" stroke-width="0.911765"/>
</g>
<mask id="mask5" mask-type="alpha" maskUnits="userSpaceOnUse" x="7" y="32" width="15" height="16">
<path d="M21.6763 47.2673H7.41812V32.1919H21.6763V47.2673Z" fill="white"/>
</mask>
<g mask="url(#mask5)">
<path d="M21.6763 4.05086L-3.45071 54.6854" stroke="#B0BFC9" stroke-width="0.911765"/>
</g>
<mask id="mask6" mask-type="alpha" maskUnits="userSpaceOnUse" x="7" y="32" width="17" height="16">
<path d="M23.143 47.2673H7.41812V32.1919H23.143V47.2673Z" fill="white"/>
</mask>
<g mask="url(#mask6)">
<path d="M23.143 4.05086L-1.98398 54.6854" stroke="#B0BFC9" stroke-width="0.911765"/>
</g>
<mask id="mask7" mask-type="alpha" maskUnits="userSpaceOnUse" x="7" y="32" width="18" height="16">
<path d="M24.6097 47.2673H7.41812V32.1919H24.6097V47.2673Z" fill="white"/>
</mask>
<g mask="url(#mask7)">
<path d="M24.6097 4.05086L-0.517273 54.6854" stroke="#B0BFC9" stroke-width="0.911765"/>
</g>
<mask id="mask8" mask-type="alpha" maskUnits="userSpaceOnUse" x="7" y="32" width="20" height="16">
<path d="M26.0765 47.2673H7.41812V32.1919H26.0765V47.2673Z" fill="white"/>
</mask>
<g mask="url(#mask8)">
<path d="M26.0765 4.05086L0.949463 54.6854" stroke="#B0BFC9" stroke-width="0.911765"/>
</g>
<mask id="mask9" mask-type="alpha" maskUnits="userSpaceOnUse" x="7" y="32" width="21" height="16">
<path d="M27.5432 47.2673H7.41812V32.1919H27.5432V47.2673Z" fill="white"/>
</mask>
<g mask="url(#mask9)">
<path d="M27.5432 4.05086L2.41617 54.6854" stroke="#B0BFC9" stroke-width="0.911765"/>
</g>
<mask id="mask10" mask-type="alpha" maskUnits="userSpaceOnUse" x="7" y="32" width="23" height="16">
<path d="M29.0099 47.2673H7.41812V32.1919H29.0099V47.2673Z" fill="white"/>
</mask>
<g mask="url(#mask10)">
<path d="M29.0099 4.05086L3.8829 54.6854" stroke="#B0BFC9" stroke-width="0.911765"/>
</g>
<mask id="mask11" mask-type="alpha" maskUnits="userSpaceOnUse" x="7" y="32" width="24" height="16">
<path d="M30.4767 47.2673H7.41751V32.1919H30.4754V47.2673H30.4767Z" fill="white"/>
</mask>
<g mask="url(#mask11)">
<path d="M30.4766 4.05086L5.349 54.6854" stroke="#B0BFC9" stroke-width="0.911765"/>
</g>
<mask id="mask12" mask-type="alpha" maskUnits="userSpaceOnUse" x="7" y="32" width="25" height="16">
<path d="M31.9428 47.2673H7.41812V32.1919H31.9428V47.2673Z" fill="white"/>
</mask>
<g mask="url(#mask12)">
<path d="M31.9428 4.05086L6.81577 54.6854" stroke="#B0BFC9" stroke-width="0.911765"/>
</g>
<mask id="mask13" mask-type="alpha" maskUnits="userSpaceOnUse" x="8" y="32" width="26" height="16">
<path d="M8.28247 47.2673H33.4095V32.1919H8.28247V47.2673Z" fill="white"/>
</mask>
<g mask="url(#mask13)">
<path d="M33.4095 4.05086L8.28247 54.6854" stroke="#B0BFC9" stroke-width="0.911765"/>
</g>
<mask id="mask14" mask-type="alpha" maskUnits="userSpaceOnUse" x="9" y="32" width="26" height="16">
<path d="M9.74982 47.2673H34.8762V32.1919H9.74982V47.2673Z" fill="white"/>
</mask>
<g mask="url(#mask14)">
<path d="M34.8762 4.05086L9.74982 54.6854" stroke="#B0BFC9" stroke-width="0.911765"/>
</g>
<mask id="mask15" mask-type="alpha" maskUnits="userSpaceOnUse" x="11" y="32" width="26" height="16">
<path d="M11.2159 47.2673H36.3429V32.1919H11.2159V47.2673Z" fill="white"/>
</mask>
<g mask="url(#mask15)">
<path d="M36.3429 4.05086L11.2159 54.6854" stroke="#B0BFC9" stroke-width="0.911765"/>
</g>
<mask id="mask16" mask-type="alpha" maskUnits="userSpaceOnUse" x="12" y="32" width="26" height="16">
<path d="M12.6826 47.2673H37.8097V32.1919H12.6826V47.2673Z" fill="white"/>
</mask>
<g mask="url(#mask16)">
<path d="M37.8097 4.05086L12.6826 54.6854" stroke="#B0BFC9" stroke-width="0.911765"/>
</g>
<mask id="mask17" mask-type="alpha" maskUnits="userSpaceOnUse" x="14" y="32" width="26" height="16">
<path d="M14.1494 47.2673H39.2764V32.1919H14.1494V47.2673Z" fill="white"/>
</mask>
<g mask="url(#mask17)">
<path d="M39.2764 4.05086L14.1494 54.6854" stroke="#B0BFC9" stroke-width="0.911765"/>
</g>
<mask id="mask18" mask-type="alpha" maskUnits="userSpaceOnUse" x="15" y="32" width="26" height="16">
<path d="M15.6155 47.2673H40.7437V32.1919H15.6155V47.2673Z" fill="white"/>
</mask>
<g mask="url(#mask18)">
<path d="M40.7431 4.05086L15.6155 54.6854" stroke="#B0BFC9" stroke-width="0.911765"/>
</g>
<mask id="mask19" mask-type="alpha" maskUnits="userSpaceOnUse" x="17" y="32" width="26" height="16">
<path d="M17.0828 47.2673H42.2098V32.1919H17.0828V47.2673Z" fill="white"/>
</mask>
<g mask="url(#mask19)">
<path d="M42.2098 4.05086L17.0828 54.6854" stroke="#B0BFC9" stroke-width="0.911765"/>
</g>
<mask id="mask20" mask-type="alpha" maskUnits="userSpaceOnUse" x="18" y="32" width="26" height="16">
<path d="M18.549 47.2673H43.676V32.1919H18.549V47.2673Z" fill="white"/>
</mask>
<g mask="url(#mask20)">
<path d="M43.676 4.05086L18.549 54.6854" stroke="#B0BFC9" stroke-width="0.911765"/>
</g>
<mask id="mask21" mask-type="alpha" maskUnits="userSpaceOnUse" x="20" y="32" width="26" height="16">
<path d="M20.0163 47.2673H45.1427V32.1919H20.0163V47.2673Z" fill="white"/>
</mask>
<g mask="url(#mask21)">
<path d="M45.1427 4.05086L20.0163 54.6854" stroke="#B0BFC9" stroke-width="0.911765"/>
</g>
<mask id="mask22" mask-type="alpha" maskUnits="userSpaceOnUse" x="21" y="32" width="26" height="16">
<path d="M21.4824 47.2673H46.6094V32.1919H21.4824V47.2673Z" fill="white"/>
</mask>
<g mask="url(#mask22)">
<path d="M46.6094 4.05086L21.4824 54.6854" stroke="#B0BFC9" stroke-width="0.911765"/>
</g>
<mask id="mask23" mask-type="alpha" maskUnits="userSpaceOnUse" x="22" y="32" width="27" height="16">
<path d="M22.9491 47.2673H48.0761V32.1919H22.9491V47.2673Z" fill="white"/>
</mask>
<g mask="url(#mask23)">
<path d="M48.0761 4.05086L22.9491 54.6854" stroke="#B0BFC9" stroke-width="0.911765"/>
</g>
<mask id="mask24" mask-type="alpha" maskUnits="userSpaceOnUse" x="24" y="32" width="26" height="16">
<path d="M24.4158 47.2673H49.5429V32.1919H24.4158V47.2673Z" fill="white"/>
</mask>
<g mask="url(#mask24)">
<path d="M49.5429 4.05086L24.4158 54.6854" stroke="#B0BFC9" stroke-width="0.911765"/>
</g>
<mask id="mask25" mask-type="alpha" maskUnits="userSpaceOnUse" x="25" y="32" width="27" height="16">
<path d="M25.882 47.2673H51.0102V32.1919H25.882V47.2673Z" fill="white"/>
</mask>
<g mask="url(#mask25)">
<path d="M51.0096 4.05086L25.882 54.6854" stroke="#B0BFC9" stroke-width="0.911765"/>
</g>
<mask id="mask26" mask-type="alpha" maskUnits="userSpaceOnUse" x="27" y="32" width="26" height="16">
<path d="M27.3493 47.2673H52.4763V32.1919H27.3493V47.2673Z" fill="white"/>
</mask>
<g mask="url(#mask26)">
<path d="M52.4763 4.05086L27.3493 54.6854" stroke="#B0BFC9" stroke-width="0.911765"/>
</g>
<mask id="mask27" mask-type="alpha" maskUnits="userSpaceOnUse" x="28" y="32" width="26" height="16">
<path d="M28.816 47.2673H53.9431V32.1919H28.816V47.2673Z" fill="white"/>
</mask>
<g mask="url(#mask27)">
<path d="M53.9431 4.05086L28.816 54.6854" stroke="#B0BFC9" stroke-width="0.911765"/>
</g>
<mask id="mask28" mask-type="alpha" maskUnits="userSpaceOnUse" x="30" y="32" width="26" height="16">
<path d="M30.2827 47.2673H55.4092V32.1919H30.2827V47.2673Z" fill="white"/>
</mask>
<g mask="url(#mask28)">
<path d="M55.4092 4.05086L30.2827 54.6854" stroke="#B0BFC9" stroke-width="0.911765"/>
</g>
<mask id="mask29" mask-type="alpha" maskUnits="userSpaceOnUse" x="31" y="32" width="26" height="16">
<path d="M31.7489 47.2673H56.8759V32.1919H31.7489V47.2673Z" fill="white"/>
</mask>
<g mask="url(#mask29)">
<path d="M56.8759 4.05086L31.7489 54.6854" stroke="#B0BFC9" stroke-width="0.911765"/>
</g>
<mask id="mask30" mask-type="alpha" maskUnits="userSpaceOnUse" x="33" y="32" width="26" height="16">
<path d="M33.2156 47.2673H58.3426V32.1919H33.2156V47.2673Z" fill="white"/>
</mask>
<g mask="url(#mask30)">
<path d="M58.3426 4.05086L33.2156 54.6854" stroke="#B0BFC9" stroke-width="0.911765"/>
</g>
<mask id="mask31" mask-type="alpha" maskUnits="userSpaceOnUse" x="34" y="32" width="26" height="16">
<path d="M34.6823 47.2673H59.8093V32.1919H34.6823V47.2673Z" fill="white"/>
</mask>
<g mask="url(#mask31)">
<path d="M59.8093 4.05086L34.6823 54.6854" stroke="#B0BFC9" stroke-width="0.911765"/>
</g>
<mask id="mask32" mask-type="alpha" maskUnits="userSpaceOnUse" x="36" y="32" width="26" height="16">
<path d="M36.149 47.2673H61.2767V32.1919H36.149V47.2673Z" fill="white"/>
</mask>
<g mask="url(#mask32)">
<path d="M61.2767 4.05086L36.1484 54.6854" stroke="#B0BFC9" stroke-width="0.911765"/>
</g>
<mask id="mask33" mask-type="alpha" maskUnits="userSpaceOnUse" x="37" y="32" width="26" height="16">
<path d="M37.6158 47.2673H62.7428V32.1919H37.6158V47.2673Z" fill="white"/>
</mask>
<g mask="url(#mask33)">
<path d="M62.7428 4.05086L37.6158 54.6854" stroke="#B0BFC9" stroke-width="0.911765"/>
</g>
<mask id="mask34" mask-type="alpha" maskUnits="userSpaceOnUse" x="39" y="32" width="26" height="16">
<path d="M39.0825 47.2673H64.0892V32.1919H39.0825V47.2673Z" fill="white"/>
</mask>
<g mask="url(#mask34)">
<path d="M64.2095 4.05086L39.0825 54.6854" stroke="#B0BFC9" stroke-width="0.911765"/>
</g>
<mask id="mask35" mask-type="alpha" maskUnits="userSpaceOnUse" x="40" y="32" width="25" height="16">
<path d="M40.5492 47.2673H64.0891V32.1919H40.5492V47.2673Z" fill="white"/>
</mask>
<g mask="url(#mask35)">
<path d="M65.6762 4.05086L40.5492 54.6854" stroke="#B0BFC9" stroke-width="0.911765"/>
</g>
<mask id="mask36" mask-type="alpha" maskUnits="userSpaceOnUse" x="42" y="32" width="23" height="16">
<path d="M42.0159 47.2673H64.0891V32.1919H42.0159V47.2673Z" fill="white"/>
</mask>
<g mask="url(#mask36)">
<path d="M67.1423 4.05086L42.0165 54.6854" stroke="#B0BFC9" stroke-width="0.911765"/>
</g>
<mask id="mask37" mask-type="alpha" maskUnits="userSpaceOnUse" x="43" y="32" width="22" height="16">
<path d="M43.4821 47.2673H64.0892V32.1919H43.4827L43.4821 47.2673Z" fill="white"/>
</mask>
<g mask="url(#mask37)">
<path d="M68.6091 4.05086L43.4827 54.6854" stroke="#B0BFC9" stroke-width="0.911765"/>
</g>
<mask id="mask38" mask-type="alpha" maskUnits="userSpaceOnUse" x="44" y="32" width="21" height="16">
<path d="M44.9488 47.2673H64.0892V32.1919H44.9488V47.2673Z" fill="white"/>
</mask>
<g mask="url(#mask38)">
<path d="M70.0758 4.05086L44.9488 54.6854" stroke="#B0BFC9" stroke-width="0.911765"/>
</g>
<mask id="mask39" mask-type="alpha" maskUnits="userSpaceOnUse" x="46" y="32" width="19" height="16">
<path d="M46.4155 47.2673H64.0891V32.1919H46.4155V47.2673Z" fill="white"/>
</mask>
<g mask="url(#mask39)">
<path d="M71.5431 4.05086L46.4149 54.6854" stroke="#B0BFC9" stroke-width="0.911765"/>
</g>
<mask id="mask40" mask-type="alpha" maskUnits="userSpaceOnUse" x="47" y="32" width="18" height="16">
<path d="M47.8822 47.2673H64.0892V32.1919H47.8822V47.2673Z" fill="white"/>
</mask>
<g mask="url(#mask40)">
<path d="M73.0093 4.05086L47.8822 54.6854" stroke="#B0BFC9" stroke-width="0.911765"/>
</g>
<mask id="mask41" mask-type="alpha" maskUnits="userSpaceOnUse" x="49" y="32" width="16" height="16">
<path d="M49.349 47.2673H64.0892V32.1919H49.349V47.2673Z" fill="white"/>
</mask>
<g mask="url(#mask41)">
<path d="M74.476 4.05086L49.349 54.6854" stroke="#B0BFC9" stroke-width="0.911765"/>
</g>
<mask id="mask42" mask-type="alpha" maskUnits="userSpaceOnUse" x="50" y="32" width="15" height="16">
<path d="M50.8157 47.2673H64.0891V32.1919H50.8157V47.2673Z" fill="white"/>
</mask>
<g mask="url(#mask42)">
<path d="M75.9427 4.05086L50.8157 54.6854" stroke="#B0BFC9" stroke-width="0.911765"/>
</g>
<mask id="mask43" mask-type="alpha" maskUnits="userSpaceOnUse" x="52" y="32" width="13" height="16">
<path d="M52.2824 47.2673H64.0892V32.1919H52.2824V47.2673Z" fill="white"/>
</mask>
<g mask="url(#mask43)">
<path d="M77.4088 4.05086L52.283 54.6854" stroke="#B0BFC9" stroke-width="0.911765"/>
</g>
<mask id="mask44" mask-type="alpha" maskUnits="userSpaceOnUse" x="53" y="32" width="12" height="16">
<path d="M53.7491 47.2673H64.0892V32.1919H53.7491V47.2673Z" fill="white"/>
</mask>
<g mask="url(#mask44)">
<path d="M78.8762 4.05086L53.7491 54.6854" stroke="#B0BFC9" stroke-width="0.911765"/>
</g>
<mask id="mask45" mask-type="alpha" maskUnits="userSpaceOnUse" x="55" y="32" width="10" height="16">
<path d="M55.2159 47.2673H64.0891V32.1919H55.2159V47.2673Z" fill="white"/>
</mask>
<g mask="url(#mask45)">
<path d="M80.3429 4.05086L55.2159 54.6854" stroke="#B0BFC9" stroke-width="0.911765"/>
</g>
<mask id="mask46" mask-type="alpha" maskUnits="userSpaceOnUse" x="56" y="32" width="9" height="16">
<path d="M56.6826 47.2673H64.0892V32.1919H56.6826V47.2673Z" fill="white"/>
</mask>
<g mask="url(#mask46)">
<path d="M81.8096 4.05086L56.6814 54.6854" stroke="#B0BFC9" stroke-width="0.911765"/>
</g>
<mask id="mask47" mask-type="alpha" maskUnits="userSpaceOnUse" x="58" y="32" width="7" height="16">
<path d="M58.1487 47.2673H64.0892V32.1919H58.1487V47.2673Z" fill="white"/>
</mask>
<g mask="url(#mask47)">
<path d="M83.2757 4.05086L58.1487 54.6854" stroke="#B0BFC9" stroke-width="0.911765"/>
</g>
<mask id="mask48" mask-type="alpha" maskUnits="userSpaceOnUse" x="59" y="32" width="6" height="16">
<path d="M59.6154 47.2673H64.0891V32.1919H59.6154V47.2673Z" fill="white"/>
</mask>
<g mask="url(#mask48)">
<path d="M84.7424 4.05086L59.6154 54.6854" stroke="#B0BFC9" stroke-width="0.911765"/>
</g>
<mask id="mask49" mask-type="alpha" maskUnits="userSpaceOnUse" x="61" y="32" width="4" height="16">
<path d="M61.0822 47.2673H64.0892V32.1919H61.0822V47.2673Z" fill="white"/>
</mask>
<g mask="url(#mask49)">
<path d="M86.2092 4.05086L61.0822 54.6854" stroke="#B0BFC9" stroke-width="0.911765"/>
</g>
<mask id="mask50" mask-type="alpha" maskUnits="userSpaceOnUse" x="62" y="32" width="3" height="16">
<path d="M62.5489 47.2673H64.0892V32.1919H62.5489V47.2673Z" fill="white"/>
</mask>
<g mask="url(#mask50)">
<path d="M87.6759 4.05086L62.5489 54.6854" stroke="#B0BFC9" stroke-width="0.911765"/>
</g>
<mask id="mask51" mask-type="alpha" maskUnits="userSpaceOnUse" x="64" y="32" width="1" height="16">
<path d="M64.0156 47.2673H64.0892V32.1919H64.0156V47.2673Z" fill="white"/>
</mask>
<g mask="url(#mask51)">
<path d="M89.1426 4.05086L64.0156 54.6854" stroke="#B0BFC9" stroke-width="0.911765"/>
</g>
<path fill-rule="evenodd" clip-rule="evenodd" d="M7.41815 47.2673H64.0892V32.1913H7.41815V47.2673Z" stroke="#221F1F" stroke-width="0.911765"/>
<path fill-rule="evenodd" clip-rule="evenodd" d="M19.0942 37.6495C23.8658 28.7689 13.9488 19.8876 18.7204 11.0069H31.2359C26.4643 19.8876 36.3819 28.7689 31.6103 37.6495H19.0942Z" fill="#992032"/>
<path fill-rule="evenodd" clip-rule="evenodd" d="M19.0942 37.6495C23.8658 28.7689 13.9488 19.8876 18.7204 11.0069H31.2359C26.4643 19.8876 36.3819 28.7689 31.6103 37.6495H19.0942Z" stroke="#231F1F" stroke-width="0.911765"/>
<path fill-rule="evenodd" clip-rule="evenodd" d="M22.6483 36.1353H29.4093C29.715 35.2871 30.5229 34.5999 31.3745 34.5999C32.7573 27.7519 27.4071 20.9045 28.7899 14.0572C27.945 14.0572 27.3761 13.3693 27.6818 12.5217H20.9208C20.6138 13.3687 19.8084 14.0572 18.9556 14.0572C17.5728 20.9045 22.923 27.7519 21.5402 34.5999C22.3851 34.5999 22.954 35.2878 22.6483 36.1353Z" fill="#992032"/>
<path fill-rule="evenodd" clip-rule="evenodd" d="M22.6483 36.1353H29.4093C29.715 35.2871 30.5229 34.5999 31.3745 34.5999C32.7573 27.7519 27.4071 20.9045 28.7899 14.0572C27.945 14.0572 27.3761 13.3693 27.6818 12.5217H20.9208C20.6138 13.3687 19.8084 14.0572 18.9556 14.0572C17.5728 20.9045 22.923 27.7519 21.5402 34.5999C22.3851 34.5999 22.954 35.2878 22.6483 36.1353V36.1353Z" stroke="#231F1F" stroke-width="0.911765"/>
<path fill-rule="evenodd" clip-rule="evenodd" d="M23.6804 26.5777C23.2877 25.078 22.8118 23.5784 22.4197 22.08C22.1097 20.913 22.8865 19.9671 24.0554 19.9671C25.2225 19.9671 26.3397 20.913 26.6497 22.08C27.0418 23.579 27.5189 25.0786 27.9104 26.5777C28.221 27.7446 27.4435 28.6905 26.2753 28.6905C25.1082 28.6905 23.991 27.7446 23.6804 26.5777Z" fill="#992032"/>
<path fill-rule="evenodd" clip-rule="evenodd" d="M23.6804 26.5777C23.2877 25.078 22.8118 23.5784 22.4197 22.08C22.1097 20.913 22.8865 19.9671 24.0554 19.9671C25.2225 19.9671 26.3397 20.913 26.6497 22.08C27.0418 23.579 27.5189 25.0786 27.9104 26.5777C28.221 27.7446 27.4435 28.6905 26.2753 28.6905C25.1082 28.6905 23.991 27.7446 23.6804 26.5777V26.5777Z" stroke="#231F1F" stroke-width="0.911765"/>
<path fill-rule="evenodd" clip-rule="evenodd" d="M12.5368 37.4273C16.9771 29.5928 8.32685 21.7588 12.7665 13.9242H24.6748C20.6399 21.7588 29.6962 29.5928 25.6613 37.4267H12.5368V37.4273Z" fill="#992032"/>
<path fill-rule="evenodd" clip-rule="evenodd" d="M12.5368 37.4273C16.9771 29.5928 8.32685 21.7588 12.7665 13.9242H24.6748C20.6399 21.7588 29.6962 29.5928 25.6613 37.4267H12.5368V37.4273Z" stroke="#231F1F" stroke-width="0.911765"/>
<path fill-rule="evenodd" clip-rule="evenodd" d="M16.2124 36.091H23.2646C23.5254 35.343 24.3369 34.7371 25.2194 34.7371C26.3172 28.696 21.4143 22.6549 22.5127 16.6139C21.6976 16.6139 21.1323 16.0085 21.3937 15.2599H14.9238C14.6436 16.0085 13.8674 16.6139 13.0468 16.6139C11.7028 22.6549 16.3601 28.696 15.0162 34.7371C15.8933 34.7371 16.4926 35.343 16.2124 36.091Z" fill="#992032"/>
<path fill-rule="evenodd" clip-rule="evenodd" d="M16.2124 36.091H23.2646C23.5254 35.343 24.3369 34.7371 25.2194 34.7371C26.3172 28.696 21.4143 22.6549 22.5127 16.6139C21.6976 16.6139 21.1323 16.0085 21.3937 15.2599H14.9238C14.6436 16.0085 13.8674 16.6139 13.0468 16.6139C11.7028 22.6549 16.3601 28.696 15.0162 34.7371C15.8933 34.7371 16.4926 35.343 16.2124 36.091Z" stroke="#231F1F" stroke-width="0.911765"/>
<path fill-rule="evenodd" clip-rule="evenodd" d="M17.1266 27.5704C16.7941 26.3075 16.4069 25.0446 16.075 23.7812C15.7334 22.5068 16.5692 21.474 17.822 21.474C19.0711 21.474 20.288 22.5068 20.657 23.7812C21.0138 25.044 21.4253 26.3069 21.7821 27.5698C22.151 28.8441 21.3001 29.8769 19.9981 29.8769C18.6997 29.8769 17.467 28.8435 17.1266 27.5698" fill="#992032"/>
<path fill-rule="evenodd" clip-rule="evenodd" d="M17.1266 27.5704C16.7941 26.3075 16.4069 25.0446 16.075 23.7812C15.7334 22.5068 16.5692 21.474 17.822 21.474C19.0711 21.474 20.288 22.5068 20.657 23.7812C21.0138 25.044 21.4253 26.3069 21.7821 27.5698C22.151 28.8441 21.3001 29.8769 19.9981 29.8769C18.6997 29.8769 17.467 28.8435 17.1266 27.5698V27.5704Z" stroke="#231F1F" stroke-width="0.911765"/>
<path fill-rule="evenodd" clip-rule="evenodd" d="M0.634003 47.4968H64.0892V34.2635H0.634003V47.4968Z" fill="#992032" fill-opacity="0.45"/>
<path fill-rule="evenodd" clip-rule="evenodd" d="M0.634003 47.4968H64.0892V34.2635H0.634003V47.4968Z" stroke="#231F1F" stroke-width="0.911765" stroke-linecap="round"/>
<path fill-rule="evenodd" clip-rule="evenodd" d="M0.634003 47.4968H55.5362V34.2635H0.634003V47.4968Z" fill="white"/>
<path fill-rule="evenodd" clip-rule="evenodd" d="M0.634003 47.4968H55.5362V34.2635H0.634003V47.4968Z" stroke="#221F1F" stroke-width="0.911765"/>
<path fill-rule="evenodd" clip-rule="evenodd" d="M21.3244 41.6391H4.9965C4.79515 41.6391 4.60204 41.5592 4.45967 41.417C4.31729 41.2748 4.2373 41.0819 4.2373 40.8808C4.2373 40.6796 4.31729 40.4868 4.45967 40.3445C4.60204 40.2023 4.79515 40.1224 4.9965 40.1224H21.325C21.5263 40.1224 21.7194 40.2023 21.8618 40.3445C22.0042 40.4868 22.0842 40.6796 22.0842 40.8808C22.0842 41.0819 22.0042 41.2748 21.8618 41.417C21.7194 41.5592 21.5263 41.6391 21.325 41.6391" fill="#D9E8F7"/>
<path fill-rule="evenodd" clip-rule="evenodd" d="M21.3244 41.6391H4.9965C4.79515 41.6391 4.60204 41.5592 4.45967 41.417C4.31729 41.2748 4.2373 41.0819 4.2373 40.8808C4.2373 40.6796 4.31729 40.4868 4.45967 40.3445C4.60204 40.2023 4.79515 40.1224 4.9965 40.1224H21.325C21.5263 40.1224 21.7194 40.2023 21.8618 40.3445C22.0042 40.4868 22.0842 40.6796 22.0842 40.8808C22.0842 41.0819 22.0042 41.2748 21.8618 41.417C21.7194 41.5592 21.5263 41.6391 21.325 41.6391H21.3244Z" stroke="#231F1F" stroke-width="0.911765"/>
<path fill-rule="evenodd" clip-rule="evenodd" d="M51.1743 41.6391H34.8458C34.6445 41.6391 34.4514 41.5592 34.309 41.417C34.1666 41.2748 34.0866 41.0819 34.0866 40.8808C34.0866 40.6796 34.1666 40.4868 34.309 40.3445C34.4514 40.2023 34.6445 40.1224 34.8458 40.1224H51.1743C51.3757 40.1224 51.5688 40.2023 51.7112 40.3445C51.8535 40.4868 51.9335 40.6796 51.9335 40.8808C51.9335 41.0819 51.8535 41.2748 51.7112 41.417C51.5688 41.5592 51.3757 41.6391 51.1743 41.6391Z" fill="#D9E8F7"/>
<path fill-rule="evenodd" clip-rule="evenodd" d="M51.1743 41.6391H34.8458C34.6445 41.6391 34.4514 41.5592 34.309 41.417C34.1666 41.2748 34.0866 41.0819 34.0866 40.8808C34.0866 40.6796 34.1666 40.4868 34.309 40.3445C34.4514 40.2023 34.6445 40.1224 34.8458 40.1224H51.1743C51.3757 40.1224 51.5688 40.2023 51.7112 40.3445C51.8535 40.4868 51.9335 40.6796 51.9335 40.8808C51.9335 41.0819 51.8535 41.2748 51.7112 41.417C51.5688 41.5592 51.3757 41.6391 51.1743 41.6391V41.6391Z" stroke="#231F1F" stroke-width="0.911765"/>
<path fill-rule="evenodd" clip-rule="evenodd" d="M29.7631 40.8698C29.7631 41.3144 29.5863 41.7408 29.2715 42.0552C28.9568 42.3695 28.5299 42.5461 28.0848 42.5461C27.6397 42.5461 27.2128 42.3695 26.8981 42.0552C26.5834 41.7408 26.4066 41.3144 26.4066 40.8698C26.4066 40.4252 26.5834 39.9989 26.8981 39.6845C27.2128 39.3701 27.6397 39.1935 28.0848 39.1935C28.5299 39.1935 28.9568 39.3701 29.2715 39.6845C29.5863 39.9989 29.7631 40.4252 29.7631 40.8698Z" fill="#992032" fill-opacity="0.45"/>
<path fill-rule="evenodd" clip-rule="evenodd" d="M29.7631 40.8698C29.7631 41.3144 29.5863 41.7408 29.2715 42.0552C28.9568 42.3695 28.5299 42.5461 28.0848 42.5461C27.6397 42.5461 27.2128 42.3695 26.8981 42.0552C26.5834 41.7408 26.4066 41.3144 26.4066 40.8698C26.4066 40.4252 26.5834 39.9989 26.8981 39.6845C27.2128 39.3701 27.6397 39.1935 28.0848 39.1935C28.5299 39.1935 28.9568 39.3701 29.2715 39.6845C29.5863 39.9989 29.7631 40.4252 29.7631 40.8698V40.8698Z" stroke="#231F1F" stroke-width="0.911765" stroke-linecap="round"/>
<path d="M28.0854 40.2366V41.5237" stroke="#221F1F" stroke-width="0.911765" stroke-linecap="round"/>
<path fill-rule="evenodd" clip-rule="evenodd" d="M48.3071 28.9607C48.3072 29.4999 48.201 30.0338 47.9944 30.5319C47.7879 31.0301 47.4851 31.4827 47.1035 31.8639C46.7218 32.2452 46.2686 32.5476 45.7699 32.7539C45.2712 32.9602 44.7367 33.0663 44.1969 33.0662C43.6571 33.0663 43.1226 32.9602 42.6239 32.7539C42.1252 32.5476 41.672 32.2452 41.2904 31.8639C40.9087 31.4827 40.6059 31.0301 40.3994 30.5319C40.1929 30.0338 40.0866 29.4999 40.0867 28.9607C40.0866 28.4216 40.1929 27.8877 40.3994 27.3895C40.6059 26.8914 40.9087 26.4388 41.2904 26.0575C41.672 25.6763 42.1252 25.3739 42.6239 25.1676C43.1226 24.9613 43.6571 24.8551 44.1969 24.8552C44.7367 24.8551 45.2712 24.9613 45.7699 25.1676C46.2686 25.3739 46.7218 25.6763 47.1035 26.0575C47.4851 26.4388 47.7879 26.8914 47.9944 27.3895C48.201 27.8877 48.3072 28.4216 48.3071 28.9607Z" fill="white"/>
<path fill-rule="evenodd" clip-rule="evenodd" d="M48.3071 28.9607C48.3072 29.4999 48.201 30.0338 47.9944 30.5319C47.7879 31.0301 47.4851 31.4827 47.1035 31.8639C46.7218 32.2452 46.2686 32.5476 45.7699 32.7539C45.2712 32.9602 44.7367 33.0663 44.1969 33.0662C43.6571 33.0663 43.1226 32.9602 42.6239 32.7539C42.1252 32.5476 41.672 32.2452 41.2904 31.8639C40.9087 31.4827 40.6059 31.0301 40.3994 30.5319C40.1929 30.0338 40.0866 29.4999 40.0867 28.9607C40.0866 28.4216 40.1929 27.8877 40.3994 27.3895C40.6059 26.8914 40.9087 26.4388 41.2904 26.0575C41.672 25.6763 42.1252 25.3739 42.6239 25.1676C43.1226 24.9613 43.6571 24.8551 44.1969 24.8552C44.7367 24.8551 45.2712 24.9613 45.7699 25.1676C46.2686 25.3739 46.7218 25.6763 47.1035 26.0575C47.4851 26.4388 47.7879 26.8914 47.9944 27.3895C48.201 27.8877 48.3072 28.4216 48.3071 28.9607V28.9607Z" stroke="#221F1F" stroke-width="0.911765"/>
<path fill-rule="evenodd" clip-rule="evenodd" d="M47.083 28.9607C47.083 29.7253 46.7789 30.4586 46.2376 30.9993C45.6963 31.54 44.9621 31.8437 44.1966 31.8437C43.4311 31.8437 42.697 31.54 42.1557 30.9993C41.6144 30.4586 41.3103 29.7253 41.3103 28.9607C41.3103 28.1961 41.6144 27.4628 42.1557 26.9221C42.697 26.3814 43.4311 26.0777 44.1966 26.0777C44.9621 26.0777 45.6963 26.3814 46.2376 26.9221C46.7789 27.4628 47.083 28.1961 47.083 28.9607Z" fill="white"/>
<path fill-rule="evenodd" clip-rule="evenodd" d="M47.083 28.9607C47.083 29.7253 46.7789 30.4586 46.2376 30.9993C45.6963 31.54 44.9621 31.8437 44.1966 31.8437C43.4311 31.8437 42.697 31.54 42.1557 30.9993C41.6144 30.4586 41.3103 29.7253 41.3103 28.9607C41.3103 28.1961 41.6144 27.4628 42.1557 26.9221C42.697 26.3814 43.4311 26.0777 44.1966 26.0777C44.9621 26.0777 45.6963 26.3814 46.2376 26.9221C46.7789 27.4628 47.083 28.1961 47.083 28.9607V28.9607Z" stroke="#221F1F" stroke-width="0.911765"/>
<path fill-rule="evenodd" clip-rule="evenodd" d="M43.8936 28.4659C43.8936 28.376 43.8966 28.2813 43.9015 28.183L43.4006 28.5983C43.3734 28.621 43.3414 28.6374 43.307 28.6463C43.2727 28.6552 43.2368 28.6564 43.2019 28.6499C43.1501 28.64 43.1033 28.6125 43.0694 28.5721L42.839 28.2625L44.0206 27.2613H44.6224V30.6595H43.8936V28.4659Z" fill="#231F1F"/>
<path fill-rule="evenodd" clip-rule="evenodd" d="M41.3109 18.1414C41.311 18.6806 41.2048 19.2146 40.9983 19.7128C40.7918 20.211 40.4891 20.6637 40.1074 21.045C39.7257 21.4263 39.2725 21.7288 38.7738 21.9351C38.275 22.1415 37.7405 22.2476 37.2006 22.2475C36.6608 22.2476 36.1263 22.1415 35.6276 21.9352C35.1289 21.7289 34.6758 21.4265 34.2941 21.0452C33.9124 20.664 33.6096 20.2114 33.4031 19.7132C33.1966 19.2151 33.0903 18.6812 33.0904 18.142C33.0903 17.6029 33.1966 17.069 33.4031 16.5708C33.6096 16.0727 33.9124 15.6201 34.2941 15.2388C34.6758 14.8576 35.1289 14.5552 35.6276 14.3489C36.1263 14.1426 36.6608 14.0365 37.2006 14.0365C37.7404 14.0365 38.2749 14.1426 38.7736 14.3489C39.2724 14.5552 39.7255 14.8576 40.1072 15.2388C40.4889 15.6201 40.7916 16.0727 40.9982 16.5708C41.2047 17.069 41.3109 17.6029 41.3109 18.142" fill="white"/>
<path fill-rule="evenodd" clip-rule="evenodd" d="M41.3109 18.1414C41.311 18.6806 41.2048 19.2146 40.9983 19.7128C40.7918 20.211 40.4891 20.6637 40.1074 21.045C39.7257 21.4263 39.2725 21.7288 38.7738 21.9351C38.275 22.1415 37.7405 22.2476 37.2006 22.2475C36.6608 22.2476 36.1263 22.1415 35.6276 21.9352C35.1289 21.7289 34.6758 21.4265 34.2941 21.0452C33.9124 20.664 33.6096 20.2114 33.4031 19.7132C33.1966 19.2151 33.0903 18.6812 33.0904 18.142C33.0903 17.6029 33.1966 17.069 33.4031 16.5708C33.6096 16.0727 33.9124 15.6201 34.2941 15.2388C34.6758 14.8576 35.1289 14.5552 35.6276 14.3489C36.1263 14.1426 36.6608 14.0365 37.2006 14.0365C37.7404 14.0365 38.2749 14.1426 38.7736 14.3489C39.2724 14.5552 39.7255 14.8576 40.1072 15.2388C40.4889 15.6201 40.7916 16.0727 40.9982 16.5708C41.2047 17.069 41.3109 17.6029 41.3109 18.142V18.1414Z" stroke="#221F1F" stroke-width="0.911765"/>
<path fill-rule="evenodd" clip-rule="evenodd" d="M40.0866 18.1414C40.0866 18.9061 39.7826 19.6394 39.2413 20.18C38.7 20.7207 37.9658 21.0245 37.2003 21.0245C36.4348 21.0245 35.7006 20.7207 35.1594 20.18C34.6181 19.6394 34.314 18.9061 34.314 18.1414C34.314 17.3768 34.6181 16.6435 35.1594 16.1028C35.7006 15.5622 36.4348 15.2584 37.2003 15.2584C37.9658 15.2584 38.7 15.5622 39.2413 16.1028C39.7826 16.6435 40.0866 17.3768 40.0866 18.1414Z" fill="white"/>
<path fill-rule="evenodd" clip-rule="evenodd" d="M40.0866 18.1414C40.0866 18.9061 39.7826 19.6394 39.2413 20.18C38.7 20.7207 37.9658 21.0245 37.2003 21.0245C36.4348 21.0245 35.7006 20.7207 35.1594 20.18C34.6181 19.6394 34.314 18.9061 34.314 18.1414C34.314 17.3768 34.6181 16.6435 35.1594 16.1028C35.7006 15.5622 36.4348 15.2584 37.2003 15.2584C37.9658 15.2584 38.7 15.5622 39.2413 16.1028C39.7826 16.6435 40.0866 17.3768 40.0866 18.1414V18.1414Z" stroke="#221F1F" stroke-width="0.911765"/>
<path fill-rule="evenodd" clip-rule="evenodd" d="M36.8973 17.6472C36.8973 17.5574 36.9004 17.4626 36.9052 17.3643L36.4044 17.7796C36.3771 17.8023 36.3451 17.8187 36.3108 17.8276C36.2764 17.8365 36.2405 17.8378 36.2056 17.8312C36.1538 17.8213 36.107 17.7938 36.0731 17.7535L35.8427 17.4438L37.0244 16.4426H37.6261L37.6255 19.8414H36.8973V17.6478V17.6472Z" fill="#231F1F"/>
<path fill-rule="evenodd" clip-rule="evenodd" d="M51.1932 8.41621C51.1933 8.95538 51.087 9.48928 50.8805 9.98742C50.6739 10.4856 50.3712 10.9382 49.9895 11.3194C49.6078 11.7007 49.1547 12.0031 48.656 12.2094C48.1573 12.4157 47.6227 12.5218 47.083 12.5217C46.5432 12.5218 46.0087 12.4157 45.5099 12.2094C45.0112 12.0031 44.5581 11.7007 44.1764 11.3194C43.7947 10.9382 43.492 10.4856 43.2854 9.98742C43.0789 9.48928 42.9726 8.95538 42.9727 8.41621C42.9726 7.87705 43.0789 7.34315 43.2854 6.84501C43.492 6.34688 43.7947 5.89426 44.1764 5.51301C44.5581 5.13176 45.0112 4.82936 45.5099 4.62306C46.0087 4.41677 46.5432 4.31064 47.083 4.31071C47.6227 4.31064 48.1573 4.41677 48.656 4.62306C49.1547 4.82936 49.6078 5.13176 49.9895 5.51301C50.3712 5.89426 50.6739 6.34688 50.8805 6.84501C51.087 7.34315 51.1933 7.87705 51.1932 8.41621Z" fill="white"/>
<path fill-rule="evenodd" clip-rule="evenodd" d="M51.1932 8.41622C51.1933 8.95538 51.087 9.48928 50.8805 9.98742C50.6739 10.4856 50.3712 10.9382 49.9895 11.3194C49.6078 11.7007 49.1547 12.0031 48.656 12.2094C48.1573 12.4157 47.6227 12.5218 47.083 12.5217C46.5432 12.5218 46.0087 12.4157 45.5099 12.2094C45.0112 12.0031 44.5581 11.7007 44.1764 11.3194C43.7947 10.9382 43.492 10.4856 43.2854 9.98742C43.0789 9.48928 42.9726 8.95538 42.9727 8.41622C42.9726 7.87705 43.0789 7.34315 43.2854 6.84501C43.492 6.34688 43.7947 5.89426 44.1764 5.51301C44.5581 5.13176 45.0112 4.82936 45.5099 4.62306C46.0087 4.41677 46.5432 4.31064 47.083 4.31071C47.6227 4.31064 48.1573 4.41677 48.656 4.62306C49.1547 4.82936 49.6078 5.13176 49.9895 5.51301C50.3712 5.89426 50.6739 6.34688 50.8805 6.84501C51.087 7.34315 51.1933 7.87705 51.1932 8.41622V8.41622Z" stroke="#221F1F" stroke-width="0.911765"/>
<path fill-rule="evenodd" clip-rule="evenodd" d="M49.969 8.41622C49.969 9.18084 49.6649 9.91415 49.1236 10.4548C48.5823 10.9955 47.8481 11.2992 47.0826 11.2992C46.3171 11.2992 45.583 10.9955 45.0417 10.4548C44.5004 9.91415 44.1963 9.18084 44.1963 8.41622C44.1963 7.6516 44.5004 6.91829 45.0417 6.37762C45.583 5.83695 46.3171 5.5332 47.0826 5.5332C47.8481 5.5332 48.5823 5.83695 49.1236 6.37762C49.6649 6.91829 49.969 7.6516 49.969 8.41622Z" fill="white"/>
<path fill-rule="evenodd" clip-rule="evenodd" d="M49.969 8.41622C49.969 9.18084 49.6649 9.91415 49.1236 10.4548C48.5823 10.9955 47.8481 11.2992 47.0826 11.2992C46.3171 11.2992 45.583 10.9955 45.0417 10.4548C44.5004 9.91415 44.1963 9.18084 44.1963 8.41622C44.1963 7.6516 44.5004 6.91829 45.0417 6.37762C45.583 5.83695 46.3171 5.5332 47.0826 5.5332C47.8481 5.5332 48.5823 5.83695 49.1236 6.37762C49.6649 6.91829 49.969 7.6516 49.969 8.41622V8.41622Z" stroke="#221F1F" stroke-width="0.911765"/>
<path fill-rule="evenodd" clip-rule="evenodd" d="M46.7796 7.9214C46.7796 7.83154 46.7827 7.73683 46.7875 7.63847L46.2867 8.05376C46.2594 8.07647 46.2275 8.09287 46.1931 8.1018C46.1587 8.11072 46.1228 8.11194 46.0879 8.10536C46.0361 8.09546 45.9893 8.06801 45.9554 8.02765L45.725 7.71801L46.9067 6.71683H47.5084V10.115H46.7796V7.9214Z" fill="#231F1F"/>
<path fill-rule="evenodd" clip-rule="evenodd" d="M60.3388 0.455887V23.7447L61.5277 24.9316L62.4717 23.9881L63.4169 24.9316L64.3609 23.9881L65.3061 24.9316L66.2507 23.9881L67.1946 24.9316L68.1392 23.9881L69.0844 24.9316L70.0284 23.9881L70.9736 24.9316L71.9176 23.9881L72.8628 24.9316L73.8068 23.9881L74.7513 24.9316L75.9403 23.7447V0.455887H60.3388Z" fill="white"/>
<path fill-rule="evenodd" clip-rule="evenodd" d="M60.3388 0.455887V23.7447L61.5277 24.9316L62.4717 23.9881L63.4169 24.9316L64.3609 23.9881L65.3061 24.9316L66.2507 23.9881L67.1946 24.9316L68.1392 23.9881L69.0844 24.9316L70.0284 23.9881L70.9736 24.9316L71.9176 23.9881L72.8628 24.9316L73.8068 23.9881L74.7513 24.9316L75.9403 23.7447V0.455887H60.3388Z" stroke="#221F1F" stroke-width="0.911765"/>
<path d="M70.6772 6.42873H70.0145V5.73843H70.6772C70.7274 5.736 70.7748 5.71433 70.8095 5.67791C70.8441 5.6415 70.8635 5.59314 70.8635 5.54285C70.8635 5.49256 70.8441 5.4442 70.8095 5.40778C70.7748 5.37137 70.7274 5.3497 70.6772 5.34727H70.0145V4.39166C70.0234 4.28456 69.9968 4.1775 69.9388 4.08701C69.9152 4.05784 69.8851 4.03476 69.8507 4.0197C69.8164 4.00464 69.779 3.99806 69.7416 4.0005C69.7053 3.99843 69.669 4.00522 69.6359 4.02029C69.6028 4.03536 69.5738 4.05826 69.5515 4.08701C69.4942 4.17792 69.4679 4.285 69.4767 4.39212V5.34888H68.231L67.7018 4.48071C67.6557 4.40317 67.6139 4.33069 67.5724 4.26097C67.5414 4.20701 67.5053 4.15615 67.4645 4.1091C67.4348 4.07587 67.3989 4.04868 67.3589 4.02903C67.3135 4.00862 67.2641 3.99886 67.2144 4.0005C67.1412 4.0005 67.0699 4.02379 67.0108 4.067C66.9504 4.10784 66.9039 4.16611 66.8775 4.23405C66.85 4.32906 66.838 4.42789 66.8419 4.52673V5.34865H66.1863C66.1361 5.35108 66.0887 5.37275 66.054 5.40916C66.0193 5.44558 66 5.49394 66 5.54423C66 5.59452 66.0193 5.64288 66.054 5.67929C66.0887 5.71571 66.1361 5.73738 66.1863 5.73981H66.8419V6.43011H66.1863C66.1361 6.43255 66.0887 6.45422 66.054 6.49063C66.0193 6.52704 66 6.5754 66 6.62569C66 6.67598 66.0193 6.72435 66.054 6.76076C66.0887 6.79717 66.1361 6.81884 66.1863 6.82128H66.8419V7.91218C66.8336 8.01857 66.8611 8.12467 66.9201 8.21361C66.9434 8.24335 66.9735 8.26706 67.0078 8.28272C67.0422 8.29838 67.0798 8.30553 67.1175 8.30357C67.155 8.305 67.1923 8.29758 67.2264 8.28191C67.2605 8.26624 67.2905 8.24276 67.3138 8.21338C67.374 8.12504 67.4021 8.01873 67.3934 7.91218V6.81898H68.5209L69.1309 7.83141C69.1732 7.89837 69.2172 7.96602 69.2607 8.03229C69.2975 8.08868 69.3403 8.14091 69.3884 8.18807C69.4256 8.22524 69.4699 8.25458 69.5186 8.27435C69.5706 8.29354 69.6257 8.3029 69.6811 8.30196C69.846 8.30196 70.0149 8.2472 70.0149 7.84177V6.81898H70.6772C70.7274 6.81654 70.7748 6.79487 70.8095 6.75846C70.8441 6.72205 70.8635 6.67368 70.8635 6.62339C70.8635 6.5731 70.8441 6.52474 70.8095 6.48833C70.7748 6.45192 70.7274 6.43025 70.6772 6.42781V6.42873ZM69.477 5.73843V6.42873H68.8902L68.4696 5.73843H69.477ZM67.3934 4.94712L67.6355 5.34888H67.3934V4.94712ZM67.3934 6.42873V5.73843H67.87L68.2841 6.42873H67.3934ZM69.4765 7.391L69.1277 6.81898H69.4765V7.391Z" fill="#221F1F"/>
<path d="M62.9695 12.1611H73.219" stroke="#221F1F" stroke-width="0.911765"/>
<path d="M62.9695 14.4621H73.219" stroke="#221F1F" stroke-width="0.911765"/>
<path d="M62.9695 16.762H73.219" stroke="#221F1F" stroke-width="0.911765"/>
<path d="M62.9695 19.0625H68.5933" stroke="#221F1F" stroke-width="0.911765"/>
</g>
<defs>
<clipPath id="clip0">
<rect width="93" height="51" fill="white"/>
</clipPath>
</defs>
</svg>
