<svg width="55" height="55" viewBox="0 0 55 55" fill="none" xmlns="http://www.w3.org/2000/svg">
<circle cx="27.5" cy="27.5" r="27.5" fill="#EBD2D6"/>
<g clip-path="url(#clip0)">
<path d="M41.681 23.1912L27.4605 12.7792C27.1863 12.5785 26.8138 12.5785 26.5397 12.7792L12.3191 23.1912C11.9717 23.4455 11.8963 23.9332 12.1506 24.2806C12.405 24.6279 12.8928 24.7033 13.2401 24.449L27 14.3742L40.76 24.449C40.8988 24.5506 41.06 24.5996 41.2199 24.5996C41.4599 24.5996 41.6967 24.4891 41.8494 24.2805C42.1038 23.9332 42.0283 23.4455 41.681 23.1912Z" fill="#9A2032"/>
<path d="M37.9127 24.6255C37.4823 24.6255 37.1333 24.9745 37.1333 25.405V37.8121H30.8976V31.0395C30.8976 28.8903 29.149 27.1419 26.9999 27.1419C24.8508 27.1419 23.1023 28.8904 23.1023 31.0395V37.8122H16.8666V25.405C16.8666 24.9745 16.5175 24.6255 16.0871 24.6255C15.6567 24.6255 15.3076 24.9745 15.3076 25.405V38.5917C15.3076 39.0222 15.6567 39.3712 16.0871 39.3712H23.8818C24.2917 39.3712 24.6271 39.0545 24.6582 38.6524C24.6601 38.6342 24.6612 38.6143 24.6612 38.5917V31.0396C24.6612 29.75 25.7104 28.7009 26.9999 28.7009C28.2895 28.7009 29.3387 29.75 29.3387 31.0396V38.5917C29.3387 38.6142 29.3398 38.6337 29.3417 38.6517C29.3724 39.0541 29.708 39.3712 30.1181 39.3712H37.9128C38.3433 39.3712 38.6923 39.0222 38.6923 38.5917V25.405C38.6922 24.9745 38.3432 24.6255 37.9127 24.6255Z" fill="#9A2032"/>
</g>
<defs>
<clipPath id="clip0">
<rect width="30" height="30" fill="white" transform="translate(12 11)"/>
</clipPath>
</defs>
</svg>
