<svg width="55" height="55" viewBox="0 0 55 55" fill="none" xmlns="http://www.w3.org/2000/svg">
<circle cx="27.5" cy="27.5" r="27.5" fill="#EBD2D6"/>
<path d="M39.4536 27.7546C38.6882 26.5619 37.6098 25.6076 36.3351 24.9948C36.0434 24.8545 35.6933 24.9773 35.5531 25.269C35.4129 25.5607 35.5357 25.9107 35.8273 26.0509C38.0487 27.1188 39.4839 29.4003 39.4839 31.8635C39.4839 32.9175 39.2241 33.9627 38.7327 34.8864C38.5807 35.172 38.689 35.5269 38.9748 35.6789C39.0624 35.7255 39.1566 35.7477 39.2494 35.7477C39.4591 35.7477 39.6619 35.6348 39.7672 35.4368C40.3485 34.3444 40.6558 33.1087 40.6558 31.8635C40.6558 30.401 40.2401 28.9802 39.4536 27.7546Z" fill="#9A2032"/>
<path d="M33.9574 24.2462L33.918 24.2461C33.5944 24.2461 33.332 24.5084 33.332 24.832C33.332 25.1556 33.5944 25.418 33.918 25.418L33.9519 25.418C33.9528 25.418 33.9537 25.418 33.9547 25.418C34.277 25.418 34.5391 25.1575 34.5406 24.8348C34.5421 24.5112 34.281 24.2477 33.9574 24.2462Z" fill="#9A2032"/>
<path d="M30.2503 37.676C28.029 36.6081 26.5937 34.3265 26.5937 31.8634C26.5937 30.8094 26.8535 29.7642 27.345 28.8405C27.497 28.5549 27.3886 28.2 27.1029 28.048C26.8173 27.896 26.4624 28.0044 26.3104 28.2901C25.7291 29.3826 25.4219 30.6182 25.4219 31.8634C25.4219 33.3259 25.8376 34.7467 26.6241 35.9723C27.3895 37.165 28.4679 38.1193 29.7426 38.7322C29.8244 38.7715 29.9109 38.7901 29.996 38.7901C30.2142 38.7901 30.4237 38.6677 30.5246 38.4579C30.6647 38.1663 30.542 37.8162 30.2503 37.676Z" fill="#9A2032"/>
<path d="M36.8642 31.9515H35.7503V30.8274H36.8642C36.9466 30.8208 37.0235 30.7845 37.0795 30.7257C37.1356 30.6669 37.1667 30.5899 37.1667 30.51C37.1667 30.43 37.1356 30.353 37.0795 30.2942C37.0235 30.2354 36.9466 30.1991 36.8642 30.1925H35.7503V28.6385C35.7652 28.4641 35.7203 28.2899 35.6226 28.1427C35.5829 28.0948 35.5319 28.0569 35.4738 28.0322C35.4157 28.0075 35.3523 27.9968 35.289 28.0008C35.2278 27.9975 35.1667 28.0086 35.1109 28.0331C35.0552 28.0576 35.0064 28.0949 34.9688 28.1416C34.8721 28.2896 34.8279 28.464 34.8428 28.6385V30.1947H32.7461L31.8544 28.7814C31.7778 28.6553 31.7064 28.5373 31.6366 28.4237C31.5844 28.3359 31.5236 28.253 31.4549 28.1764C31.4048 28.1225 31.3445 28.0784 31.2771 28.0465C31.2008 28.0136 31.1177 27.998 31.0341 28.0008C30.9109 28.001 30.7909 28.0391 30.6915 28.1096C30.5896 28.1759 30.5111 28.2707 30.4665 28.3813C30.4201 28.5359 30.3998 28.6967 30.4063 28.8575V30.1947H29.3025C29.22 30.2013 29.1432 30.2376 29.0871 30.2964C29.0311 30.3552 29 30.4322 29 30.5121C29 30.5921 29.0311 30.6691 29.0871 30.7279C29.1432 30.7867 29.22 30.823 29.3025 30.8296H30.4057V31.9515H29.3025C29.22 31.9581 29.1432 31.9944 29.0871 32.0532C29.0311 32.112 29 32.189 29 32.269C29 32.3489 29.0311 32.4259 29.0871 32.4847C29.1432 32.5435 29.22 32.5798 29.3025 32.5864H30.4057V34.3634C30.392 34.536 30.4384 34.7082 30.5373 34.8526C30.5764 34.9011 30.6271 34.9397 30.685 34.9652C30.7429 34.9907 30.8063 35.0022 30.8698 34.9988C30.9329 35.0011 30.9957 34.989 31.0531 34.9635C31.1105 34.938 31.1608 34.8998 31.2001 34.852C31.3012 34.7085 31.3484 34.5359 31.334 34.3628V32.5864H33.2333L34.2605 34.2351C34.332 34.3438 34.4057 34.4525 34.4794 34.5612C34.5413 34.6529 34.6134 34.7378 34.6943 34.8145C34.757 34.8752 34.8316 34.923 34.9137 34.9553C35.0012 34.9864 35.0939 35.0015 35.1871 34.9999C35.465 34.9999 35.7497 34.9107 35.7497 34.2508V32.5864H36.8642C36.9466 32.5798 37.0235 32.5435 37.0795 32.4847C37.1356 32.4259 37.1667 32.3489 37.1667 32.269C37.1667 32.189 37.1356 32.112 37.0795 32.0532C37.0235 31.9944 36.9466 31.9581 36.8642 31.9515ZM34.8434 30.8274V31.9494H33.8549L33.1466 30.8274H34.8434ZM31.3357 29.5408L31.743 30.1931H31.3357V29.5408ZM31.3357 31.9515V30.8274H32.1385L32.8372 31.9494L31.3357 31.9515ZM34.8434 33.517L34.256 32.5864H34.8434V33.517Z" fill="#9A2032"/>
<path d="M32.1606 38.3085L32.1267 38.3084C31.8016 38.3078 31.5396 38.5679 31.5381 38.8915C31.5366 39.2152 31.7978 39.4787 32.1213 39.4802L32.1606 39.4804C32.4841 39.4804 32.7465 39.218 32.7465 38.8944C32.7465 38.5709 32.4841 38.3085 32.1606 38.3085Z" fill="#9A2032"/>
<path d="M35.6997 22.2637C35.6284 22.0938 35.541 21.9337 35.4394 21.7851H36.9648C38.451 21.7851 39.6601 20.576 39.6601 19.0898C39.6601 17.6037 38.451 16.3945 36.9648 16.3945H32.2726C32.5709 15.9608 32.7461 15.4361 32.7461 14.8711C32.7461 13.3849 31.5369 12.1758 30.0507 12.1758H15.6953C14.2091 12.1758 13 13.3849 13 14.8711C13 16.3573 14.2091 17.5664 15.6953 17.5664H20.3875C20.0892 18.0001 19.914 18.5248 19.914 19.0898C19.914 19.6548 20.0891 20.1796 20.3875 20.6133H18.8594C17.3732 20.6133 16.1641 21.8224 16.1641 23.3086C16.1641 24.1621 16.5633 24.9238 17.1845 25.4179C16.5633 25.9121 16.1641 26.6738 16.1641 27.5273C16.1641 28.3808 16.5633 29.1425 17.1845 29.6367C16.5633 30.1309 16.1641 30.8925 16.1641 31.7461C16.1641 32.5996 16.5633 33.3612 17.1845 33.8554C16.5633 34.3496 16.1641 35.1113 16.1641 35.9648C16.1641 37.451 17.3732 38.6601 18.8594 38.6601H25.7646C27.5837 40.6058 30.1716 41.8242 33.0391 41.8242C38.5315 41.8242 43 37.3558 43 31.8633C43 27.292 39.9045 23.4306 35.6997 22.2637ZM36.9648 17.5664C37.8049 17.5664 38.4882 18.2498 38.4882 19.0898C38.4882 19.9298 37.8049 20.6133 36.9648 20.6133H33.2148H22.6094C21.7693 20.6133 21.0859 19.9298 21.0859 19.0898C21.0859 18.2498 21.7693 17.5664 22.6094 17.5664H36.9648ZM15.6953 16.3945C14.8553 16.3945 14.1719 15.7111 14.1719 14.8711C14.1719 14.0311 14.8553 13.3477 15.6953 13.3477H30.0507C30.8908 13.3477 31.5742 14.0311 31.5742 14.8711C31.5742 15.7111 30.8908 16.3945 30.0507 16.3945H15.6953ZM18.8594 21.7851H33.2148C33.4508 21.7851 33.6768 21.84 33.8796 21.9382C33.6024 21.9149 33.3222 21.9024 33.0391 21.9024C30.2884 21.9024 27.7947 23.0232 25.9903 24.832H18.8594C18.0194 24.832 17.3359 24.1486 17.3359 23.3086C17.3359 22.4686 18.0194 21.7851 18.8594 21.7851ZM18.8594 26.0039H24.9891C24.324 26.9152 23.8097 27.943 23.4831 29.0507H18.8594C18.0193 29.0507 17.3359 28.3674 17.3359 27.5273C17.3359 26.6873 18.0193 26.0039 18.8594 26.0039ZM18.8594 30.2226H23.214C23.1252 30.7566 23.0782 31.3045 23.0782 31.8633C23.0782 32.3406 23.1127 32.8099 23.1779 33.2695H18.8594C18.0193 33.2695 17.3359 32.5861 17.3359 31.7461C17.3359 30.906 18.0193 30.2226 18.8594 30.2226ZM18.8594 37.4882C18.0193 37.4882 17.3359 36.8049 17.3359 35.9648C17.3359 35.1247 18.0193 34.4414 18.8594 34.4414H23.4171C23.7128 35.5437 24.1931 36.571 24.823 37.4882H18.8594ZM33.0391 40.6523C28.1928 40.6523 24.25 36.7096 24.25 31.8633C24.25 27.017 28.1928 23.0743 33.0391 23.0743C37.8854 23.0743 41.8281 27.017 41.8281 31.8633C41.8281 36.7096 37.8854 40.6523 33.0391 40.6523Z" fill="#9A2032"/>
</svg>
