<svg width="40" height="40" viewBox="0 0 40 40" fill="none" xmlns="http://www.w3.org/2000/svg">
<circle cx="20" cy="20" r="20" fill="#EBD2D6"/>
<g clip-path="url(#clip0)">
<path d="M24.6281 12.2455H23.3441V11.042C23.3441 10.6876 23.0565 10.4 22.7021 10.4H16.4963C16.1419 10.4 15.8543 10.6876 15.8543 11.042V12.2455H14.5703C13.7425 12.2455 13.0723 12.9162 13.0723 13.7436V28.902C13.0723 29.7293 13.7425 30.4 14.5703 30.4H24.6281C25.4558 30.4 26.1261 29.7294 26.1261 28.902V13.7435C26.1261 12.9166 25.4559 12.2455 24.6281 12.2455ZM21.3112 13.7435V12.2455V11.684H22.0602V12.2456V13.7436V15.1611H21.3112V13.7435ZM17.1383 13.7435V12.2455V11.684H19.4923V12.2456V13.7436V15.1611H17.1383V13.7435ZM17.5308 28.6427C17.5308 28.9975 17.2432 29.2847 16.8888 29.2847H15.8543C15.4999 29.2847 15.2123 28.9975 15.2123 28.6427V27.5376C15.2123 27.1828 15.4999 26.8956 15.8543 26.8956H16.8888C17.2432 26.8956 17.5308 27.1828 17.5308 27.5376V28.6427ZM17.5308 25.4148C17.5308 25.7695 17.2432 26.0568 16.8888 26.0568H15.8543C15.4999 26.0568 15.2123 25.7696 15.2123 25.4148V24.3097C15.2123 23.9549 15.4999 23.6677 15.8543 23.6677H16.8888C17.2432 23.6677 17.5308 23.9549 17.5308 24.3097V25.4148ZM17.5308 22.1873C17.5308 22.5421 17.2432 22.8293 16.8888 22.8293H15.8543C15.4999 22.8293 15.2123 22.5421 15.2123 22.1873V21.0818C15.2123 20.727 15.4999 20.4398 15.8543 20.4398H16.8888C17.2432 20.4398 17.5308 20.727 17.5308 21.0818V22.1873ZM20.7586 28.6427C20.7586 28.9975 20.471 29.2847 20.1166 29.2847H19.0818C18.7274 29.2847 18.4398 28.9975 18.4398 28.6427V27.5376C18.4398 27.1828 18.7274 26.8956 19.0818 26.8956H20.1166C20.471 26.8956 20.7586 27.1828 20.7586 27.5376V28.6427ZM20.7586 25.4148C20.7586 25.7695 20.471 26.0568 20.1166 26.0568H19.0818C18.7274 26.0568 18.4398 25.7696 18.4398 25.4148V24.3097C18.4398 23.9549 18.7274 23.6677 19.0818 23.6677H20.1166C20.471 23.6677 20.7586 23.9549 20.7586 24.3097V25.4148ZM20.7586 22.1873C20.7586 22.5421 20.471 22.8293 20.1166 22.8293H19.0818C18.7274 22.8293 18.4398 22.5421 18.4398 22.1873V21.0818C18.4398 20.727 18.7274 20.4398 19.0818 20.4398H20.1166C20.471 20.4398 20.7586 20.727 20.7586 21.0818V22.1873ZM23.9862 28.6427C23.9862 28.9975 23.6986 29.2847 23.3442 29.2847H22.3097C21.9554 29.2847 21.6678 28.9975 21.6678 28.6427V27.5376C21.6678 27.1828 21.9554 26.8956 22.3097 26.8956H23.3442C23.6986 26.8956 23.9862 27.1828 23.9862 27.5376V28.6427ZM23.9862 25.4148C23.9862 25.7695 23.6986 26.0568 23.3442 26.0568H22.3097C21.9554 26.0568 21.6678 25.7696 21.6678 25.4148V24.3097C21.6678 23.9549 21.9554 23.6677 22.3097 23.6677H23.3442C23.6986 23.6677 23.9862 23.9549 23.9862 24.3097V25.4148ZM23.9862 22.1873C23.9862 22.5421 23.6986 22.8293 23.3442 22.8293H22.3097C21.9554 22.8293 21.6678 22.5421 21.6678 22.1873V21.0818C21.6678 20.727 21.9554 20.4398 22.3097 20.4398H23.3442C23.6986 20.4398 23.9862 20.727 23.9862 21.0818V22.1873ZM23.9862 18.4386C23.9862 19.0441 23.4949 19.5351 22.8893 19.5351H16.3089C15.7033 19.5351 15.2124 19.0441 15.2124 18.4386V17.3057C15.2124 16.6996 15.7033 16.2088 16.3089 16.2088H22.8893C23.4948 16.2088 23.9862 16.6997 23.9862 17.3057V18.4386H23.9862Z" fill="#9A2032"/>
</g>
<defs>
<clipPath id="clip0">
<rect width="20" height="20" fill="white" transform="matrix(1 0 0 -1 9.59961 30.4)"/>
</clipPath>
</defs>
</svg>
