<svg width="55" height="55" viewBox="0 0 55 55" fill="none" xmlns="http://www.w3.org/2000/svg">
<circle cx="27.5" cy="27.5" r="27.5" fill="#EBD2D6"/>
<path d="M36.824 18.1492H36.053V16.4332C36.053 13.9896 34.0634 12 31.6198 12H22.3121C19.8686 12 17.8789 13.9896 17.8789 16.4332V18.1492H17.1763C14.7328 18.1492 12.7432 20.1389 12.7432 22.5824V29.7326C12.7432 32.1762 14.7328 34.1658 17.1763 34.1658H17.8727V39.7865C17.8727 41.0052 18.8675 42 20.0862 42H33.8333C35.052 42 36.0468 41.0052 36.0468 39.7865V34.1658H36.824C39.2675 34.1658 41.2572 32.1762 41.2572 29.7326V22.5824C41.2572 20.1389 39.2675 18.1492 36.824 18.1492ZM19.5515 16.4332C19.5515 14.9161 20.7888 13.6788 22.3059 13.6788H31.6074C33.1245 13.6788 34.3618 14.9161 34.3618 16.4332V18.1492H19.5515V16.4332ZM34.368 39.799C34.368 40.0912 34.1255 40.3337 33.8333 40.3337H20.0862C19.7939 40.3337 19.5515 40.0912 19.5515 39.799V30.5285H34.368V39.799ZM39.5784 29.7389C39.5784 31.256 38.3411 32.4933 36.824 32.4933H36.053V30.5285H37.1597C37.6261 30.5285 37.9991 30.1554 37.9991 29.6891C37.9991 29.2228 37.6261 28.8497 37.1597 28.8497H16.6416C16.1753 28.8497 15.8022 29.2228 15.8022 29.6891C15.8022 30.1554 16.1753 30.5285 16.6416 30.5285H17.8789V32.4933H17.1763C15.6592 32.4933 14.4219 31.256 14.4219 29.7389V22.5886C14.4219 21.0715 15.6592 19.8342 17.1763 19.8342H36.824C38.3411 19.8342 39.5784 21.0715 39.5784 22.5886V29.7389Z" fill="#9A2032"/>
<path d="M21.5845 34.657H32.2726C32.7389 34.657 33.112 34.284 33.112 33.8176C33.112 33.3513 32.7389 32.9783 32.2726 32.9783H21.5845C21.1182 32.9783 20.7451 33.3513 20.7451 33.8176C20.7451 34.284 21.1244 34.657 21.5845 34.657Z" fill="#9A2032"/>
<path d="M32.3413 36.4102H21.647C21.1807 36.4102 20.8076 36.7832 20.8076 37.2495C20.8076 37.7159 21.1807 38.0889 21.647 38.0889H32.3351C32.8014 38.0889 33.1745 37.7159 33.1745 37.2495C33.1745 36.7832 32.8014 36.4102 32.3413 36.4102Z" fill="#9A2032"/>
<path d="M36.8057 21.4446H35.1021C34.6358 21.4446 34.2627 21.8176 34.2627 22.284C34.2627 22.7503 34.6358 23.1233 35.1021 23.1233H36.8057C37.272 23.1233 37.6451 22.7503 37.6451 22.284C37.6451 21.8176 37.272 21.4446 36.8057 21.4446Z" fill="#9A2032"/>
</svg>
