<svg width="297" height="277" viewBox="0 0 297 277" fill="none" xmlns="http://www.w3.org/2000/svg">
<g filter="url(#filter0_d)">
<path d="M35.0074 26.0018H261.993C264.323 25.9617 266.581 26.5796 268.27 27.7198C269.959 28.8601 270.941 30.4294 271 32.0831V244.917C270.941 246.571 269.959 248.14 268.27 249.28C266.581 250.42 264.323 251.038 261.993 250.998H35.0074C32.6769 251.038 30.4193 250.42 28.7304 249.28C27.0415 248.14 26.0595 246.571 26 244.917L26 32.0831C26.0595 30.4294 27.0415 28.8601 28.7304 27.7198C30.4193 26.5796 32.6769 25.9617 35.0074 26.0018Z" fill="white"/>
</g>
<path d="M97.4327 143.151H106.726V152.445H116.014V161.734H69.5822V152.445H78.8699V133.862H97.452V143.151H97.4327ZM218.155 226.718H227.43V217.43H218.156L218.155 226.718ZM106.72 143.151H116.008V133.862H106.72V143.151ZM236.706 226.718H246V217.43H236.706V226.718ZM125.302 236H143.865V226.711H125.302V236ZM208.86 236V226.711H199.567V236H208.86ZM171.722 236H181.01V217.425H171.722V236ZM97.4327 115.292V124.581H125.29V115.292H97.4327ZM88.1584 124.574V115.286H69.5754V133.861H78.8631V124.574H88.1584ZM116.009 105.999H51.0126V41.0067H116.009V105.999ZM106.72 50.2944H60.2877V96.7162H106.72V50.2944ZM69.5754 217.43H97.4268V189.572H69.5754V217.43ZM162.428 208.136V217.43H171.729V208.135L162.428 208.136ZM97.4327 59.583H69.5822V87.4277H97.4327V59.583ZM245.993 41.0067V106.005H180.998V41.0067H245.993ZM236.706 50.2953H190.285V96.717H236.706V50.2953ZM51 170.989H116.002V235.987H51V170.989ZM60.2944 226.716H106.726V180.284H60.2944V226.716ZM60.2944 115.29H51V161.724H60.2944V115.29ZM180.998 161.712V170.987H190.285V161.714L180.998 161.712ZM153.14 198.858V189.572H143.859V198.867H125.297V217.45H143.859V226.737H153.14V208.155H162.435V198.867H153.14V198.858ZM125.302 78.1509H143.865V68.8514H125.302V78.1509ZM199.572 152.437H218.162V161.725H227.443V133.877H218.162V115.292H208.862V143.151H181.028V152.445H190.316V161.734H199.603V152.445H199.577L199.572 152.437ZM208.86 180.281H199.567V170.989H190.28V189.572H162.428V198.867H181.017V217.45H190.305V226.737H199.593V208.155H236.725V198.867H208.874V180.284L208.86 180.281ZM208.86 180.281H218.162V161.714H208.862L208.86 180.281ZM134.577 180.281V170.989H143.852V161.714H153.133V152.426H162.427V133.843H190.278V115.26H180.99V124.547H171.702V87.4083H162.415V68.8253H171.702V41H162.415V59.5754H153.127V41H125.277V59.5754H134.565V50.2886H143.84V68.8514H153.128V96.7095H162.416V105.998H153.128V124.573H143.84V105.998H134.565V96.7162H125.277V115.292H134.565V124.581H125.277V152.446H134.565V133.862H143.84V152.445L134.565 152.446V161.734H125.277V189.572H143.84V180.284L134.577 180.281ZM236.705 189.57V180.284H218.143V189.572L236.705 189.57ZM227.418 59.583H199.573V87.4277H227.417L227.418 59.583ZM153.14 180.281H171.729V170.989H162.428V161.714H153.133L153.134 180.284L153.14 180.281ZM171.723 161.712V152.426H162.422V161.714L171.723 161.712ZM227.417 124.572H246V115.286H227.418L227.417 124.572ZM236.705 198.858H246V189.572H236.706L236.705 198.858ZM236.705 143.148H246V133.862H236.706L236.705 143.148ZM153.14 96.7162H143.859V106.005H153.14V96.7162Z" fill="#9A2032"/>
<circle cx="148.5" cy="138.5" r="15.5" fill="#9A2032" stroke="white" stroke-width="4"/>
<g filter="url(#filter1_d)">
<path d="M150.191 131.383C150.191 131.383 150.606 129.477 152.165 131.711C152.165 131.711 154.672 134.422 153.932 137.83C153.77 138.561 153.52 139.271 153.188 139.944C152.632 141.063 151.859 142.064 150.911 142.893L148.883 144.717C148.883 144.717 146.733 146.111 147.19 144.348C147.19 144.348 147.212 143.617 147.57 143.472C147.57 143.472 148.234 143.077 147.804 142.505C147.804 142.505 147.588 142.089 148.199 141.721C148.273 141.681 148.337 141.627 148.387 141.561C148.438 141.495 148.473 141.42 148.492 141.339C148.51 141.259 148.511 141.176 148.494 141.095C148.477 141.015 148.443 140.939 148.394 140.872C148.364 140.7 148.394 140.524 148.477 140.371C148.56 140.217 148.693 140.094 148.855 140.022C148.855 140.022 149.321 139.955 149.05 139.174C149.05 139.174 148.994 138.678 149.38 138.585C149.38 138.585 149.938 138.504 149.442 137.868C149.442 137.868 149.147 137.426 149.744 137.097C149.744 137.097 150.13 137.003 149.7 136.301C149.7 136.301 149.445 136.003 150.002 135.66C150.002 135.66 150.308 135.541 149.985 134.916C149.985 134.916 149.701 134.305 150.167 134.107C150.167 134.107 150.512 133.87 150.255 133.311C150.256 133.312 149.928 131.906 150.191 131.383Z" fill="white"/>
</g>
<g filter="url(#filter2_d)">
<path d="M149.221 131.637C149.221 131.637 149.642 130.643 148.764 130.883C147.886 131.123 146.202 132.449 146.202 132.449C146.202 132.449 143.572 133.82 143.25 137.968C143.25 137.968 143.301 142.193 144.563 143.985L145.665 145.466C145.665 145.466 146.159 145.711 146.301 144.889L146.679 143.362C146.711 143.272 146.763 143.19 146.832 143.122C146.901 143.054 146.984 143.001 147.076 142.969C147.076 142.969 147.422 142.863 147.045 142.265C147.045 142.265 146.937 141.927 147.402 141.729C147.466 141.709 147.525 141.675 147.573 141.63C147.665 141.502 147.717 141.35 147.721 141.194C147.725 141.037 147.682 140.883 147.596 140.75C147.565 140.499 147.561 140.244 147.583 139.992C147.643 139.358 147.862 138.748 148.221 138.216C148.221 138.216 150.015 135.233 149.274 133.738C149.001 133.066 148.982 132.321 149.221 131.637Z" fill="white"/>
</g>
<defs>
<filter id="filter0_d" x="0.661648" y="0.661648" width="295.677" height="275.677" filterUnits="userSpaceOnUse" color-interpolation-filters="sRGB">
<feFlood flood-opacity="0" result="BackgroundImageFix"/>
<feColorMatrix in="SourceAlpha" type="matrix" values="0 0 0 0 0 0 0 0 0 0 0 0 0 0 0 0 0 0 127 0"/>
<feOffset/>
<feGaussianBlur stdDeviation="12.6692"/>
<feColorMatrix type="matrix" values="0 0 0 0 0 0 0 0 0 0 0 0 0 0 0 0 0 0 0.071 0"/>
<feBlend mode="normal" in2="BackgroundImageFix" result="effect1_dropShadow"/>
<feBlend mode="normal" in="SourceGraphic" in2="effect1_dropShadow" result="shape"/>
</filter>
<filter id="filter1_d" x="144.697" y="129.006" width="11.8001" height="19.4719" filterUnits="userSpaceOnUse" color-interpolation-filters="sRGB">
<feFlood flood-opacity="0" result="BackgroundImageFix"/>
<feColorMatrix in="SourceAlpha" type="matrix" values="0 0 0 0 0 0 0 0 0 0 0 0 0 0 0 0 0 0 127 0"/>
<feOffset dy="0.809524"/>
<feGaussianBlur stdDeviation="1.21429"/>
<feColorMatrix type="matrix" values="0 0 0 0 0 0 0 0 0 0 0 0 0 0 0 0 0 0 0.02 0"/>
<feBlend mode="normal" in2="BackgroundImageFix" result="effect1_dropShadow"/>
<feBlend mode="normal" in="SourceGraphic" in2="effect1_dropShadow" result="shape"/>
</filter>
<filter id="filter2_d" x="140.821" y="129.227" width="11.0605" height="19.5115" filterUnits="userSpaceOnUse" color-interpolation-filters="sRGB">
<feFlood flood-opacity="0" result="BackgroundImageFix"/>
<feColorMatrix in="SourceAlpha" type="matrix" values="0 0 0 0 0 0 0 0 0 0 0 0 0 0 0 0 0 0 127 0"/>
<feOffset dy="0.809524"/>
<feGaussianBlur stdDeviation="1.21429"/>
<feColorMatrix type="matrix" values="0 0 0 0 0 0 0 0 0 0 0 0 0 0 0 0 0 0 0.02 0"/>
<feBlend mode="normal" in2="BackgroundImageFix" result="effect1_dropShadow"/>
<feBlend mode="normal" in="SourceGraphic" in2="effect1_dropShadow" result="shape"/>
</filter>
</defs>
</svg>
