<svg width="32" height="32" viewBox="0 0 32 32" fill="none" xmlns="http://www.w3.org/2000/svg">
<g clip-path="url(#clip0)">
<path fill-rule="evenodd" clip-rule="evenodd" d="M21.998 2.52797C22.0744 2.39568 22.1762 2.27978 22.2975 2.18692C22.4188 2.09406 22.5572 2.02607 22.7049 1.98686C22.8525 1.94765 23.0064 1.93799 23.1578 1.95843C23.3092 1.97887 23.4551 2.02901 23.587 2.10598C23.8543 2.25964 24.0495 2.51311 24.13 2.81069C24.2104 3.10826 24.1694 3.4256 24.016 3.69298L20.807 9.24898C20.7306 9.38127 20.6289 9.49717 20.5076 9.59003C20.3863 9.68289 20.2478 9.75088 20.1002 9.79009C19.9526 9.8293 19.7986 9.83896 19.6472 9.81852C19.4958 9.79808 19.35 9.74794 19.218 9.67098C18.9508 9.51731 18.7555 9.26384 18.6751 8.96626C18.5946 8.66869 18.6356 8.35135 18.789 8.08397L21.998 2.52797Z" fill="#992032"/>
<path fill-rule="evenodd" clip-rule="evenodd" d="M27.7535 7.43301C27.8858 7.35665 28.0319 7.30716 28.1834 7.2874C28.3348 7.26764 28.4887 7.27798 28.6362 7.31784C28.7836 7.3577 28.9217 7.42629 29.0426 7.51967C29.1635 7.61306 29.2647 7.72939 29.3405 7.86201C29.4952 8.12871 29.5376 8.4459 29.4585 8.74385C29.3793 9.04181 29.1851 9.29616 28.9185 9.451L23.3625 12.659C23.2303 12.7354 23.0842 12.7848 22.9327 12.8046C22.7813 12.8244 22.6274 12.814 22.4799 12.7742C22.3325 12.7343 22.1943 12.6657 22.0735 12.5723C21.9526 12.479 21.8513 12.3626 21.7755 12.23C21.6207 11.9635 21.578 11.6465 21.6568 11.3486C21.7355 11.0507 21.9293 10.7962 22.1955 10.641L27.7535 7.43301Z" fill="#992032"/>
<path fill-rule="evenodd" clip-rule="evenodd" d="M30.2889 14.559C30.4417 14.559 30.5929 14.5892 30.734 14.6478C30.875 14.7064 31.0031 14.7923 31.1109 14.9005C31.2187 15.0088 31.304 15.1373 31.362 15.2786C31.42 15.4199 31.4496 15.5713 31.4489 15.724C31.4494 16.0323 31.3275 16.3282 31.11 16.5466C30.8925 16.7651 30.5972 16.8882 30.2889 16.889H23.8729C23.7201 16.889 23.5689 16.8589 23.4278 16.8002C23.2868 16.7416 23.1587 16.6557 23.0509 16.5475C22.9431 16.4393 22.8578 16.3108 22.7998 16.1695C22.7418 16.0282 22.7122 15.8768 22.7129 15.724C22.7124 15.4157 22.8343 15.1199 23.0518 14.9014C23.2693 14.683 23.5646 14.5598 23.8729 14.559H30.2889Z" fill="#992032"/>
<path fill-rule="evenodd" clip-rule="evenodd" d="M28.9192 21.998C29.0515 22.0744 29.1674 22.1762 29.2602 22.2975C29.3531 22.4188 29.4211 22.5572 29.4603 22.7049C29.4995 22.8525 29.5092 23.0064 29.4887 23.1578C29.4683 23.3092 29.4181 23.4551 29.3412 23.587C29.1875 23.8543 28.934 24.0495 28.6365 24.13C28.3389 24.2104 28.0215 24.1694 27.7542 24.016L22.1972 20.807C22.0649 20.7306 21.949 20.6289 21.8561 20.5076C21.7632 20.3863 21.6953 20.2478 21.6561 20.1002C21.6168 19.9526 21.6072 19.7986 21.6276 19.6472C21.6481 19.4958 21.6982 19.35 21.7752 19.218C21.9288 18.9508 22.1823 18.7555 22.4799 18.6751C22.7775 18.5946 23.0948 18.6356 23.3622 18.789L28.9192 21.998Z" fill="#992032"/>
<path fill-rule="evenodd" clip-rule="evenodd" d="M24.0151 27.754C24.0915 27.8863 24.141 28.0324 24.1608 28.1838C24.1805 28.3353 24.1702 28.4892 24.1303 28.6366C24.0905 28.7841 24.0219 28.9222 23.9285 29.0431C23.8351 29.164 23.7188 29.2652 23.5861 29.341C23.3194 29.4956 23.0023 29.5381 22.7043 29.4589C22.4063 29.3798 22.152 29.1856 21.9971 28.919L18.7891 23.363C18.7128 23.2307 18.6633 23.0847 18.6435 22.9332C18.6238 22.7817 18.6341 22.6279 18.674 22.4804C18.7138 22.3329 18.7824 22.1948 18.8758 22.0739C18.9692 21.9531 19.0855 21.8518 19.2181 21.776C19.4849 21.6214 19.802 21.579 20.1 21.6581C20.398 21.7372 20.6523 21.9314 20.8071 22.198L24.0151 27.754Z" fill="#992032"/>
<path fill-rule="evenodd" clip-rule="evenodd" d="M16.8876 30.289C16.8876 30.4418 16.8574 30.593 16.7988 30.7341C16.7402 30.8752 16.6543 31.0033 16.5461 31.111C16.4378 31.2188 16.3094 31.3042 16.168 31.3622C16.0267 31.4202 15.8753 31.4497 15.7226 31.449C15.4145 31.4493 15.1189 31.3273 14.9006 31.1098C14.6824 30.8923 14.5594 30.5971 14.5586 30.289V23.873C14.5586 23.7203 14.5888 23.569 14.6474 23.428C14.706 23.2869 14.7919 23.1588 14.9001 23.051C15.0084 22.9432 15.1368 22.8579 15.2781 22.7999C15.4195 22.7419 15.5708 22.7124 15.7236 22.713C16.0319 22.7125 16.3277 22.8344 16.5462 23.0519C16.7646 23.2694 16.8878 23.5647 16.8886 23.873L16.8876 30.289Z" fill="#992032"/>
<path fill-rule="evenodd" clip-rule="evenodd" d="M9.45058 28.919C9.3742 29.0513 9.27244 29.1672 9.15114 29.26C9.02984 29.3529 8.8914 29.4209 8.74375 29.4601C8.59611 29.4993 8.44217 29.509 8.29079 29.4885C8.1394 29.4681 7.99354 29.4179 7.86158 29.341C7.59435 29.1873 7.39906 28.9338 7.31862 28.6363C7.23818 28.3387 7.27917 28.0214 7.43258 27.754L10.6416 22.197C10.718 22.0647 10.8197 21.9488 10.941 21.8559C11.0623 21.7631 11.2008 21.6951 11.3484 21.6559C11.4961 21.6167 11.65 21.607 11.8014 21.6274C11.9528 21.6479 12.0986 21.698 12.2306 21.775C12.4978 21.9286 12.6931 22.1821 12.7735 22.4797C12.854 22.7773 12.813 23.0946 12.6596 23.362L9.45058 28.919Z" fill="#992032"/>
<path fill-rule="evenodd" clip-rule="evenodd" d="M3.69407 24.015C3.56178 24.0914 3.41571 24.1409 3.26425 24.1606C3.11279 24.1804 2.95891 24.17 2.81146 24.1302C2.664 24.0903 2.52587 24.0217 2.40499 23.9284C2.28412 23.835 2.18287 23.7186 2.10707 23.586C1.95244 23.3193 1.91003 23.0021 1.98916 22.7042C2.06829 22.4062 2.26249 22.1519 2.52907 21.997L8.08507 18.789C8.21736 18.7127 8.36343 18.6632 8.51489 18.6434C8.66636 18.6237 8.82023 18.634 8.96769 18.6739C9.11514 18.7137 9.25327 18.7823 9.37415 18.8757C9.49503 18.9691 9.59627 19.0854 9.67207 19.218C9.8267 19.4847 9.86911 19.8019 9.78998 20.0999C9.71085 20.3978 9.51665 20.6522 9.25007 20.807L3.69407 24.015Z" fill="#992032"/>
<path fill-rule="evenodd" clip-rule="evenodd" d="M1.16001 16.888C1.00734 16.888 0.856167 16.8579 0.715168 16.7993C0.574169 16.7408 0.446114 16.655 0.338346 16.5469C0.230577 16.4387 0.145216 16.3104 0.0871559 16.1692C0.0290962 16.028 -0.000519553 15.8767 6.89718e-06 15.724C-0.000524264 15.4157 0.12136 15.1199 0.338873 14.9014C0.556387 14.683 0.851733 14.5598 1.16001 14.559H7.57601C7.72876 14.559 7.88001 14.5892 8.02108 14.6478C8.16214 14.7064 8.29024 14.7923 8.39802 14.9005C8.50581 15.0088 8.59115 15.1373 8.64915 15.2786C8.70715 15.4199 8.73666 15.5713 8.73601 15.724C8.73654 16.0323 8.61465 16.3282 8.39714 16.5466C8.17963 16.7651 7.88428 16.8882 7.57601 16.889L1.16001 16.888Z" fill="#992032"/>
<path fill-rule="evenodd" clip-rule="evenodd" d="M2.52785 9.45098C2.39536 9.37493 2.27919 9.27346 2.18602 9.15239C2.09285 9.03132 2.02451 8.89304 1.98493 8.74549C1.94534 8.59794 1.9353 8.44402 1.95536 8.29257C1.97543 8.14113 2.02521 7.99514 2.10185 7.86299C2.25551 7.59576 2.50898 7.40047 2.80656 7.32002C3.10414 7.23958 3.42148 7.28057 3.68885 7.43398L9.24485 10.642C9.37714 10.7184 9.49305 10.8201 9.58591 10.9414C9.67877 11.0627 9.74675 11.2012 9.78596 11.3488C9.82518 11.4965 9.83484 11.6504 9.8144 11.8018C9.79396 11.9532 9.74381 12.099 9.66685 12.231C9.51319 12.4982 9.25972 12.6935 8.96214 12.7739C8.66456 12.8544 8.34722 12.8134 8.07985 12.66L2.52785 9.45098Z" fill="#992032"/>
<path fill-rule="evenodd" clip-rule="evenodd" d="M7.4327 3.69401C7.35634 3.56172 7.30686 3.41565 7.28709 3.26419C7.26733 3.11272 7.27768 2.95885 7.31754 2.81139C7.3574 2.66394 7.42599 2.52581 7.51937 2.40493C7.61275 2.28405 7.72909 2.18281 7.8617 2.10701C8.1284 1.95238 8.44559 1.90997 8.74355 1.9891C9.04151 2.06823 9.29586 2.26243 9.4507 2.52901L12.6587 8.08501C12.7351 8.2173 12.7845 8.36337 12.8043 8.51483C12.8241 8.6663 12.8137 8.82017 12.7739 8.96762C12.734 9.11508 12.6654 9.25321 12.572 9.37409C12.4787 9.49497 12.3623 9.59621 12.2297 9.67201C11.963 9.82664 11.6458 9.86905 11.3479 9.78992C11.0499 9.71079 10.7955 9.51659 10.6407 9.25001L7.4327 3.69401Z" fill="#992032"/>
<path fill-rule="evenodd" clip-rule="evenodd" d="M14.5586 1.16001C14.5586 1.00726 14.5888 0.856003 14.6474 0.714938C14.706 0.573874 14.7919 0.445775 14.9001 0.337993C15.0084 0.230211 15.1368 0.144872 15.2781 0.0868714C15.4195 0.0288708 15.5708 -0.00064765 15.7236 1.07768e-05C16.0319 -0.000520384 16.3277 0.121364 16.5462 0.338878C16.7646 0.556392 16.8878 0.851737 16.8886 1.16001V7.57601C16.8886 7.72877 16.8584 7.88002 16.7998 8.02108C16.7412 8.16215 16.6553 8.29025 16.5471 8.39803C16.4388 8.50581 16.3104 8.59115 16.169 8.64915C16.0277 8.70715 15.8763 8.73667 15.7236 8.73601C15.4153 8.73654 15.1194 8.61466 14.901 8.39714C14.6825 8.17963 14.5594 7.88428 14.5586 7.57601V1.16001Z" fill="#992032"/>
</g>
<defs>
<clipPath id="clip0">
<rect width="31.448" height="31.448" fill="white"/>
</clipPath>
</defs>
</svg>
